<svg xmlns="http://www.w3.org/2000/svg" viewBox="-22 -22 64 64" aria-hidden="true"><circle cx="10" cy="10" r="28.8" fill="#2a2d7c" stroke="#b6b6b6" stroke-miterlimit="10" stroke-width=".15"/><path fill="#fff" d="M-.635 19.888l2.766-4.17-4.68 1.773-1.53-4.767-1.533 4.767-4.68-1.773 2.769 4.17-4.305 2.55 4.989.435-.69 4.956 3.45-3.624 3.45 3.624-.69-4.956 4.986-.435zM28.648 5.164l-.327 2.361 1.641-1.728 1.641 1.728-.327-2.361 2.376-.204-2.049-1.218 1.32-1.986-2.229.846-.732-2.271-.729 2.271-2.229-.846 1.32 1.986-2.052 1.218zM-15.596-3.167c-.033.063-.06.129-.093.192l.39-.192h-.297zM22.408-3.167H-1.43V7.429H.334V-.647l16.152 8.076h5.922L4.75-1.403h3.948l13.71 6.855v-.984L10.672-1.403h11.736zM-8.495-12.065v1.08l-.765-.381a28.416 28.416 0 00-2.832 2.901h5.364v-1.638h.003v-3.312c-.606.432-1.203.873-1.77 1.35z"/><g fill="#fff"><path d="M-8.495-.647v8.076h1.767v-8.961z"/><path d="M-6.731-3.167h-8.571l-.384.192a28.46 28.46 0 00-1.578 3.75l4.356-2.178h3.948l-8.97 4.485c-.093.378-.21.75-.288 1.131l9.723-4.86 1.764-.885v-1.635z"/></g><g fill="#fff"><path d="M10.672-10.229L7.141-8.465h15.267v-1.764zM10.672-10.232l11.595-5.796a29.082 29.082 0 00-3.276-1.323L4.75-10.229H.802l15.642-7.818a27.898 27.898 0 00-1.41-.282l-14.7 7.344v-6.12c-.594.213-1.188.426-1.764.675v7.962h8.571l3.531-1.764z"/></g><path fill="#ed2224" d="M-6.728-3.167V7.426h5.298V-3.167h23.838v-5.301H-1.43v-7.962a28.978 28.978 0 00-5.298 3.015v4.947h-5.364a29.237 29.237 0 00-3.504 5.301h8.868z"/><path fill="#ed2224" d="M4.75-10.229l14.238-7.119a27.713 27.713 0 00-2.547-.699L.802-10.229H4.75zM4.75-1.403l17.658 8.832V5.452L8.698-1.403zM-12.908-1.403L-17.264.775a30.293 30.293 0 00-.666 2.307l8.967-4.485h-3.945z"/><path fill="#ccc" d="M10-18.5c15.6 0 28.5 12.9 28.5 28.5S25.6 38.5 10 38.5-18.5 25.6-18.5 10-5.6-18.5 10-18.5m0-1.5C-6.5-20-20-6.5-20 10s13.5 30 30 30 30-13.5 30-30-13.5-30-30-30z"/></svg>