
<svg xmlns="http://www.w3.org/2000/svg" fill="none" viewBox="0 0 64 64" aria-hidden="true"><path fill="#00923F" d="M32 62.72c16.966 0 30.72-13.754 30.72-30.72S48.966 1.28 32 1.28 1.28 15.034 1.28 32 15.034 62.72 32 62.72z"/><path fill="#F8C300" d="M32 13.776L3.462 32 32 50.224 60.538 32 32 13.776z"/><path fill="#28166F" d="M31.974 44.01c6.633 0 12.01-5.377 12.01-12.01s-5.377-12.01-12.01-12.01c-6.632 0-12.01 5.377-12.01 12.01s5.378 12.01 12.01 12.01z"/><path fill="#fff" d="M33.19 34.589l.144.365.394.025-.3.253.098.38-.332-.21-.333.21.099-.38-.304-.253.394-.025.14-.365zm8.98 1.283l.121.314.336.022-.259.214.083.327-.281-.18-.282.18.083-.327-.259-.214.336-.022.122-.314zm-1.287.995l.144.365.394.026-.304.252.099.384-.333-.208-.333.208.1-.38-.304-.253.393-.026.144-.368zm-.473-1.29l.172.433.468.032-.359.297.115.451-.393-.25-.394.25.115-.45-.358-.298.467-.032.167-.432zm-.093 2.244l.144.365.393.025-.304.253.1.38-.333-.21-.333.21.1-.38-.305-.253.394-.025.144-.365zm-1.127.592l.122.31.336.023-.26.214.084.326-.282-.179-.281.18.083-.327-.26-.214.337-.023.121-.31zm-1.155 1.075l.144.365.394.025-.304.253.099.381-.333-.211-.333.211.1-.38-.301-.254.393-.025.141-.365zm-.013 1.347l.122.31.336.023-.26.214.084.327-.282-.18-.281.18.083-.327-.26-.214.337-.022.121-.31zm-.019-2.432l.122.31.336.023-.26.214.084.327-.282-.18-.281.18.083-.327-.26-.214.337-.022.121-.31zm-1.417.279l.124.313.336.023-.259.214.083.326-.281-.179-.282.18.083-.327-.259-.214.336-.023.119-.313zm-.91-11.527l.174.432.467.032-.359.298.116.451-.394-.246-.394.25.116-.452-.362-.3.467-.033.17-.432zm-.185 12.627l.144.365.394.026-.304.253.099.38-.333-.208-.333.208.1-.38-.308-.253.394-.026.147-.365zm-.672-8.976l.125.31.336.023-.26.215.084.326-.282-.18-.281.18.083-.326-.26-.218.337-.022.118-.308zm-.32 7.572l.122.313.336.023-.26.214.084.326-.282-.179-.281.18.083-.327-.26-.214.337-.023.121-.313zm-2.406-4.816l.144.364.393.026-.304.253.1.38-.333-.207-.333.208.1-.381-.305-.253.394-.026.144-.364zm-.07 3.404l.172.432.467.032-.358.298.115.451-.393-.25-.394.25.115-.451-.358-.298.467-.032.166-.432zm.035 4.346l.064.166.179.013-.138.115.042.176-.15-.096-.148.096.042-.176-.135-.115.18-.013.064-.166zm-.756-5.74l.093.233.25.016-.192.16.06.243-.21-.134-.212.134.061-.243-.192-.16.253-.016.09-.234zm-.876-.762l.121.313.336.023-.259.214.083.326-.281-.179-.282.18.083-.327-.259-.214.336-.023.122-.313zm-3.12-2.864l.144.364.393.026-.3.253.099.38-.333-.21-.333.207.1-.38-.305-.253.394-.026.14-.361zm-.352 6.064l.172.432.468.032-.362.297.115.451-.397-.25-.39.25.115-.45-.358-.298.467-.032.17-.432zm-1.319-2.394l.144.365.394.025-.304.253.099.381-.333-.211-.333.211.1-.38-.301-.254.393-.025.141-.365zm-.435 1.347l.122.314.336.022-.26.215.087.323-.282-.18-.285.18.084-.327-.26-.214.336-.022.122-.31zm-.896-3.069l.093.234.25.016-.193.16.061.243-.211-.134-.208.137.06-.243-.191-.16.253-.016.086-.237zm-1.1.487l.172.432.467.032-.358.297.115.452-.394-.25-.396.25.115-.452-.359-.297.468-.032.17-.432zm-.993-4.999l.173.436.467.032-.358.294.115.451-.397-.246-.39.246.115-.451-.362-.298.468-.032.17-.432zm-.269 6.138l.144.365.394.025-.304.253.1.381-.334-.208-.336.211.1-.38-.304-.253.393-.026.147-.368z"/><path fill="#fff" d="M24.806 28.288c7.143 0 13.693 2.627 18.73 6.963.166-.582.288-1.187.365-1.805-5.226-4.236-11.872-6.784-19.095-6.784-1.254 0-2.49.08-3.702.228-.26.556-.477 1.13-.653 1.728 1.421-.215 2.874-.33 4.355-.33z"/><path fill="#00923F" d="M21.715 27.664c.01.118.042.208.103.269.057.06.13.086.227.08a.277.277 0 00.214-.119.436.436 0 00.055-.278c-.013-.118-.045-.208-.106-.266a.253.253 0 00-.227-.08.263.263 0 00-.211.116.436.436 0 00-.055.278zm-.224.022a.58.58 0 01.106-.422.492.492 0 01.368-.186.505.505 0 01.397.122c.102.09.16.227.176.397a.597.597 0 01-.106.425.505.505 0 01-.371.18.488.488 0 01-.394-.119.582.582 0 01-.176-.397zm1.744-.198l.26-.01c.054-.003.095-.016.121-.041.029-.023.038-.058.038-.109a.14.14 0 00-.041-.106c-.026-.022-.067-.028-.119-.028l-.268.006.01.288zm-.198.608l-.039-1.072.519-.02a.415.415 0 01.262.065c.058.051.09.125.093.227a.286.286 0 01-.038.166.197.197 0 01-.116.093.19.19 0 01.103.074.32.32 0 01.038.157l.01.128v.003c.003.064.019.105.045.115v.035l-.237.007a.214.214 0 01-.023-.055c-.003-.025-.006-.048-.006-.077l-.006-.115c-.007-.067-.02-.109-.045-.131-.026-.022-.064-.035-.122-.032l-.233.006.016.42-.221.006zm1.58-.24l.18.003c.102.003.179-.025.224-.077.041-.05.067-.137.07-.259.003-.121-.019-.208-.057-.262-.045-.061-.11-.09-.202-.09l-.202-.006-.012.691zm-.22.189l.022-1.072.42.003c.166.003.284.048.364.14.08.094.115.225.115.407a.78.78 0 01-.048.26.501.501 0 01-.13.179.465.465 0 01-.151.07c-.058.013-.135.02-.234.02l-.358-.007zm1.36.022l.057-1.069.778.045-.006.183-.56-.032-.016.233.512.029-.01.182-.512-.032-.016.279.586.032-.01.195-.803-.045zm1.26.077l.116-1.066.323.036.125.832.294-.79.327.034-.112 1.07-.205-.023.093-.861-.31.835-.225-.025-.128-.884-.093.864-.204-.022zm2.842.365l.224-1.047.762.164-.039.182-.547-.118-.051.22.5.11-.036.178-.502-.105-.055.265.576.122-.045.198-.787-.17zm2.835.067l.205.054c.055.016.1.013.131-.003.032-.019.055-.051.068-.105.012-.048.012-.09-.007-.122s-.051-.054-.102-.067l-.218-.058-.077.301zm-.048.186l-.099.368-.211-.058.278-1.037.461.125c.109.032.186.08.224.15a.36.36 0 01.016.27c-.029.108-.077.182-.147.223a.335.335 0 01-.26.026l-.262-.067zm1.287.17l.25.076c.05.016.099.02.127.003.036-.013.055-.045.07-.093.014-.041.014-.083-.006-.112-.019-.032-.05-.05-.099-.067l-.259-.08-.083.272zm-.387.511l.313-1.027.5.154c.111.035.188.083.227.147.038.064.041.144.012.243a.305.305 0 01-.086.144.199.199 0 01-.138.051.2.2 0 01.074.103.347.347 0 01-.016.163l-.038.118v.003c-.02.061-.016.103.006.122l-.01.032-.23-.07a.174.174 0 010-.058c.003-.02.006-.048.016-.077l.032-.109c.02-.064.02-.112.003-.137-.016-.029-.048-.051-.109-.07l-.224-.068-.121.4-.211-.064zm1.632-.006a.448.448 0 00-.02.285c.03.08.084.134.173.166a.26.26 0 00.243-.016c.074-.042.128-.118.17-.23a.427.427 0 00.02-.285c-.026-.08-.087-.135-.177-.17a.253.253 0 00-.24.016.427.427 0 00-.17.234zm-.215-.077a.582.582 0 01.272-.34.51.51 0 01.413-.012c.15.054.253.147.307.272a.571.571 0 01-.01.435.574.574 0 01-.275.34.498.498 0 01-.412.012.503.503 0 01-.308-.272.622.622 0 01.013-.435zm1.987 1.26a.364.364 0 01-.352.02.452.452 0 01-.272-.285.575.575 0 01.036-.432.591.591 0 01.288-.323.473.473 0 01.4.003.538.538 0 01.265.218.397.397 0 01.035.304l-.204-.09a.202.202 0 00-.03-.15.319.319 0 00-.13-.106c-.084-.035-.16-.035-.234.01-.074.038-.131.115-.18.22a.433.433 0 00-.034.282c.025.083.076.141.163.18a.25.25 0 00.185.012.282.282 0 00.148-.121l-.224-.096.07-.17.41.176-.234.538-.134-.058.028-.131zm1.018-.028l.234.115c.05.026.092.035.124.026.036-.01.061-.035.084-.08.019-.039.025-.08.012-.112-.012-.035-.041-.061-.086-.083l-.243-.119-.125.253zm-.464.445l.47-.96.468.227c.105.051.172.112.198.182.029.07.022.15-.026.244a.29.29 0 01-.108.128c-.042.028-.093.038-.144.028.038.032.054.07.057.106a.393.393 0 01-.038.157l-.051.118s0 .003-.004.003c-.028.058-.032.1-.012.122l-.016.032-.218-.102c0-.02.003-.039.01-.058a.571.571 0 01.028-.074l.045-.102c.029-.06.035-.109.026-.138-.01-.032-.042-.057-.096-.086l-.208-.106-.186.375-.195-.096zm1.2.617l.522-.937.678.377-.093.164-.493-.272-.112.198.448.25-.09.16-.447-.25-.135.24.512.285-.096.173-.694-.388zm1.206.33l.19.112a.178.178 0 00-.007.15.29.29 0 00.125.125.231.231 0 00.14.045.124.124 0 00.096-.06c.036-.055-.019-.151-.156-.282l-.007-.007-.016-.016a.664.664 0 01-.144-.176.22.22 0 01-.025-.128.338.338 0 01.048-.137.285.285 0 01.214-.15c.09-.01.192.018.307.086a.43.43 0 01.205.227.31.31 0 01-.035.272l-.176-.109a.138.138 0 00.01-.131c-.017-.042-.052-.08-.113-.115a.204.204 0 00-.13-.039.113.113 0 00-.09.058c-.032.048 0 .115.092.201l.055.055c.057.057.096.099.118.125a.456.456 0 01.051.076.22.22 0 01.036.132.36.36 0 01-.045.14.311.311 0 01-.23.164.501.501 0 01-.32-.087.488.488 0 01-.225-.243.347.347 0 01.032-.288zm1.13.707l.182.122a.162.162 0 00-.012.147c.016.045.054.09.118.131a.23.23 0 00.138.051c.038 0 .073-.019.099-.054.038-.054-.013-.15-.141-.291 0 0-.003-.003-.003-.007a.122.122 0 01-.016-.019.644.644 0 01-.135-.182.221.221 0 01-.019-.128.318.318 0 01.058-.138.281.281 0 01.22-.137.478.478 0 01.301.105c.106.07.17.15.192.237.026.09.01.18-.044.269l-.176-.119a.151.151 0 00.019-.13.227.227 0 00-.106-.12.194.194 0 00-.128-.044c-.038 0-.07.02-.093.051-.032.045-.006.115.08.208.026.026.039.045.052.058.05.057.092.105.112.131a.311.311 0 01.048.08c.022.045.032.09.028.134a.303.303 0 01-.05.138.303.303 0 01-.24.15c-.1.01-.202-.025-.318-.102-.112-.077-.182-.16-.208-.256-.035-.09-.019-.186.042-.285zm1.363.723a.464.464 0 00-.105.27.265.265 0 00.115.21c.077.058.153.077.237.055a.431.431 0 00.23-.173.43.43 0 00.102-.269.269.269 0 00-.118-.211.266.266 0 00-.234-.054.43.43 0 00-.227.172zm-.179-.137a.59.59 0 01.362-.243.493.493 0 01.396.108c.128.1.199.215.212.352a.604.604 0 01-.135.416.59.59 0 01-.361.244.493.493 0 01-.397-.11.495.495 0 01-.211-.351c-.016-.138.028-.275.134-.416z"/><path fill="#CCC" d="M32 1.6c16.64 0 30.4 13.76 30.4 30.4S48.64 62.4 32 62.4 1.6 48.64 1.6 32 15.36 1.6 32 1.6zM32 0C14.4 0 0 14.4 0 32s14.4 32 32 32 32-14.4 32-32S49.6 0 32 0z"/></svg>