<svg xmlns="http://www.w3.org/2000/svg" viewBox="-22 -22 64 64" aria-hidden="true"><circle cx="10" cy="10" r="28.8" fill="#fff" stroke="#b6b6b6" stroke-miterlimit="10" stroke-width=".15"/><circle cx="10" cy="10" r="28.8" fill="#fff" stroke="#b6b6b6" stroke-miterlimit="10" stroke-width=".15"/><path fill="#ed2224" d="M-18.8 10c0 8.43 3.63 15.99 9.42 21.24v-42.48C-15.17-5.99-18.8 1.57-18.8 10zM38.8 10c0-8.76-3.93-16.62-10.11-21.9v43.8C34.87 26.62 38.8 18.76 38.8 10zM17.5 16.51l7.53-6.12-1.56-.72c-.69-.24-.51-.63-.24-1.56l1.14-4.17-4.38.93c-.42.06-.72-.21-.78-.45l-.57-1.98-3.45 3.87c-.48.63-1.5.63-1.17-.81l1.47-7.83-1.98 1.02c-.57.3-1.11.36-1.41-.18l-2.73-5.1-2.73 5.1c-.3.54-.87.51-1.44.18L3.19-2.39l1.47 7.83c.33 1.47-.66 1.47-1.17.84L.04 2.41l-.57 1.98c-.06.24-.33.51-.78.45l-4.35-.93 1.14 4.17c.24.93.45 1.32-.24 1.56l-1.56.72 7.53 6.12c.3.24.45.66.33 1.02l-.66 2.16 7.5-.87c.24 0 .6.18.6.45l-.33 7.92h1.26l-.18-7.86c0-.27.36-.48.57-.48l7.5.87-.66-2.16c-.09-.39.06-.81.36-1.02z"/><path fill="#ccc" d="M10-18.5c15.6 0 28.5 12.9 28.5 28.5S25.6 38.5 10 38.5-18.5 25.6-18.5 10-5.6-18.5 10-18.5m0-1.5C-6.5-20-20-6.5-20 10s13.5 30 30 30 30-13.5 30-30-13.5-30-30-30z"/></svg>