<svg xmlns="http://www.w3.org/2000/svg" viewBox="-22 -22 64 64" aria-hidden="true"><circle cx="10" cy="10" r="28.8" fill="#dd2e26"/><path fill="#ffde00" d="M-2.462-7.094l-1.935-5.946-1.941 5.946-6.234.012 5.034 3.693-1.917 5.955L-4.403-1.1.646 2.569l-1.911-5.955 5.037-3.69zM11.011 4.423L9.718 6.061l-1.95-.714 1.149 1.734-1.284 1.644 2.001-.564 1.158 1.728.09-2.085 1.998-.576-1.947-.72zM16.381.439l-.723-1.956-.57 2.004-2.073.084 1.722 1.167-.561 2.007 1.635-1.284 1.728 1.158-.711-1.962L18.46.364zM14.959-6.518l.306 2.064.969-1.842 2.052.351-1.452-1.5.96-1.842-1.863.912-1.458-1.488.297 2.061-1.86.924zM9.556-12.032l1.074 1.782.186-2.079 2.025-.477-1.911-.813.177-2.079-1.368 1.575-1.917-.807 1.065 1.788-1.359 1.578z"/><path fill="#ccc" d="M10-18.5c15.6 0 28.5 12.9 28.5 28.5S25.6 38.5 10 38.5-18.5 25.6-18.5 10-5.6-18.5 10-18.5m0-1.5C-6.5-20-20-6.5-20 10s13.5 30 30 30 30-13.5 30-30-13.5-30-30-30z"/></svg>