<svg xmlns="http://www.w3.org/2000/svg" viewBox="-22 -22 64 64" aria-hidden="true"><circle cx="10" cy="10" r="28.8" fill="#243e90"/><path fill="#ffcd05" d="M8.221-6.548l1.887-1.374 1.89 1.374-.72-2.22 1.89-1.374h-2.337l-.723-2.223-.72 2.223H7.051l1.89 1.374zM8.221 32.053l1.887-1.374 1.89 1.374-.72-2.22 1.89-1.374h-2.337l-.723-2.223-.72 2.223H7.051l1.89 1.374zM-10.358 10.531l-.723 2.223 1.89-1.374 1.89 1.374-.723-2.223 1.893-1.374h-2.337l-.723-2.223-.72 2.223h-2.34zM-1.43-3.962L.46-5.336l1.89 1.374-.723-2.223 1.89-1.374H1.18l-.72-2.22-.723 2.22H-2.6l1.89 1.374zM-8.495 3.103l1.89-1.374 1.89 1.374L-5.438.88l1.893-1.374h-2.337l-.723-2.22-.72 2.22h-2.34L-7.772.88zM-5.882 18.808l-.723-2.223-.72 2.223h-2.34l1.893 1.374-.723 2.223 1.89-1.374 1.89 1.374-.723-2.223 1.893-1.374zM-1.43 29.47l1.89-1.374 1.89 1.374-.723-2.226 1.89-1.371H1.18l-.72-2.226-.723 2.226H-2.6l1.89 1.371zM28.687 9.157H26.35l1.893 1.374-.723 2.223 1.89-1.374 1.89 1.374-.723-2.223 1.893-1.374h-2.34l-.72-2.223zM17.869-3.962l1.89-1.374 1.89 1.374-.72-2.223 1.89-1.374h-2.337l-.723-2.22-.723 2.22h-2.334l1.89 1.374zM24.934 3.103l1.89-1.374 1.89 1.374L27.991.88l1.893-1.374h-2.34l-.72-2.22-.723 2.22h-2.334L25.657.88zM24.934 22.405l1.89-1.374 1.89 1.374-.723-2.223 1.893-1.374h-2.337l-.723-2.223-.723 2.223h-2.334l1.89 1.374zM17.869 29.47l1.89-1.374 1.89 1.374-.72-2.226 1.89-1.371h-2.337l-.723-2.226-.723 2.226h-2.334l1.89 1.371z"/><path fill="#ccc" d="M10-18.5c15.6 0 28.5 12.9 28.5 28.5S25.6 38.5 10 38.5-18.5 25.6-18.5 10-5.6-18.5 10-18.5m0-1.5C-6.5-20-20-6.5-20 10s13.5 30 30 30 30-13.5 30-30-13.5-30-30-30z"/></svg>