<svg xmlns="http://www.w3.org/2000/svg" viewBox="-22 -22 64 64" aria-hidden="true"><circle cx="10" cy="10" r="28.8" fill="#fff" stroke="#b6b6b6" stroke-width=".15"/><path fill="none" d="M-18.701 11.914zM38.401 5.122c-.048-.291-.12-.573-.177-.858.114.57.186 1.158.267 1.74-.042-.294-.042-.585-.09-.882zM38.701 8.065zM38.722 11.566c-.021.345-.021.696-.051 1.044.027-.345.03-.696.051-1.044zM38.23 15.706c-.033.162-.081.318-.117.477.036-.162.084-.315.117-.477zM10.666-18.764c.468.012.93.039 1.395.075-.471-.033-.936-.066-1.395-.075zM7.393-18.671c.339-.033.69-.033 1.038-.051-.345.021-.696.024-1.038.051zM26.797 33.34zM.628 37.21a28.821 28.821 0 01-13.233-9.399 31.225 31.225 0 01-1.17-1.566 29.135 29.135 0 01-1.941-3.33 28.205 28.205 0 01-1.428-3.363c-.435-1.239-.813-2.502-1.077-3.813 2.271 11.535 11.7 20.751 23.346 22.662.345.057.684.06 1.026.108-.561-.075-1.122-.141-1.674-.249a29.006 29.006 0 01-3.849-1.05zM-15.71-2.915a28.647 28.647 0 00-1.83 4.59c.144-.456.285-.906.444-1.353.399-1.116.861-2.19 1.386-3.237zM-6.35-13.652zM.64-17.228a28.962 28.962 0 00-3.663 1.575A29.337 29.337 0 01.628-17.21a.063.063 0 00.012-.018zM-9.878-10.799a28.81 28.81 0 00-5.547 7.362 28.58 28.58 0 012.892-4.467 28.57 28.57 0 012.655-2.895zM19.861-17.033A28.811 28.811 0 0132.668-7.73c.399.513.804 1.026 1.17 1.563.72 1.059 1.347 2.187 1.923 3.339A27.956 27.956 0 0137.096.313c.432 1.212.81 2.451 1.083 3.729-2.343-11.433-11.727-20.55-23.298-22.446-.33-.054-.654-.057-.981-.102.711.099 1.422.192 2.118.339 1.317.285 2.592.681 3.843 1.134zM15.985 38.167c-.426.09-.87.138-1.302.21.435-.072.876-.12 1.302-.21zM-18.401 14.878c.042.27.111.534.165.801-.111-.564-.18-1.146-.258-1.725.042.312.045.615.093.924zM9.325 38.764c-.495-.012-.984-.048-1.476-.084.495.033.987.075 1.476.084zM12.913 38.623c-.543.054-1.098.078-1.65.102.555-.024 1.104-.045 1.65-.102zM19.825 37.042zM23.398 35.449zM-18.722 8.461c.021-.363.024-.729.057-1.089-.033.36-.036.726-.057 1.089zM-18.263 4.537c.021-.117.03-.246.054-.363-.024.12-.033.246-.054.363zM-9.539-11.102zM37.555 18.265c-.132.429-.261.861-.411 1.281a28.787 28.787 0 01-4.404 8.082 28.872 28.872 0 01-5.649 5.502 28.757 28.757 0 0010.464-14.865z"/><path fill="#273476" d="M-12.605 27.811A28.793 28.793 0 00.628 37.21V21.19l-13.233 6.621zM32.737 27.631L19.858 21.19v15.837c.018-.006.033-.015.048-.021a29.355 29.355 0 003.867-1.764 28.593 28.593 0 003.021-1.905c.099-.069.198-.135.297-.207a28.674 28.674 0 005.646-5.499zM.628-1.325V-17.21c-1.26.435-2.478.963-3.651 1.557-.129.066-.258.141-.387.21a29.182 29.182 0 00-2.94 1.788c-.18.126-.363.252-.54.381a28.8 28.8 0 00-2.649 2.172c-.111.105-.228.198-.339.303a28.57 28.57 0 00-2.655 2.895L.628-1.325zM32.665-7.727a28.795 28.795 0 00-12.807-9.303v15.708l12.807-6.405z"/><path fill="#fff" d="M-17.144 19.549a28.49 28.49 0 001.428 3.363l6.732-3.363h-8.16z"/><path fill="#d0202d" d="M-8.984 19.549l-6.732 3.363a28.52 28.52 0 001.941 3.33l13.389-6.693h-8.598zM-8.984.316l-6.672-3.33c-.015.033-.036.066-.054.099A29.323 29.323 0 00-17.096.316h8.112zM29.476.316l6.285-3.141a28.94 28.94 0 00-1.923-3.339L20.875.316h8.601zM35.812 22.717a28.595 28.595 0 001.332-3.168h-7.668l6.336 3.168z"/><path fill="#d0202d" d="M38.23 15.703c.204-1.011.342-2.049.438-3.093.033-.342.036-.693.051-1.044.039-.75.06-1.5.042-2.262-.009-.417-.036-.828-.063-1.242a28.465 28.465 0 00-.21-2.058c-.081-.582-.153-1.17-.267-1.74-.006-.036-.015-.066-.021-.099H16.012v-22.326c-.693-.147-1.404-.243-2.118-.339a29.843 29.843 0 00-1.839-.189 26.787 26.787 0 00-1.395-.075c-.75-.015-1.491.003-2.229.042-.345.021-.696.021-1.038.051-.987.09-1.962.228-2.916.414V4.165h-22.683l-.003.012c-.024.117-.033.243-.054.36-.18.93-.315 1.878-.399 2.838-.036.36-.036.726-.057 1.089-.039.741-.06 1.482-.042 2.238.009.405.036.813.06 1.212.042.678.117 1.356.21 2.043.081.576.147 1.158.258 1.725.003.009.003.018.006.024H4.477v22.557c.549.108 1.113.174 1.674.249.57.075 1.137.135 1.701.177.489.036.978.075 1.476.084.651.015 1.293-.009 1.935-.036.552-.024 1.107-.048 1.65-.102a28.55 28.55 0 001.77-.252c.435-.069.876-.117 1.302-.21l.03-.009V15.709H38.23v-.006z"/><path fill="#ccc" d="M10-18.5c15.6 0 28.5 12.9 28.5 28.5S25.6 38.5 10 38.5-18.5 25.6-18.5 10-5.6-18.5 10-18.5m0-1.5C-6.5-20-20-6.5-20 10s13.5 30 30 30 30-13.5 30-30-13.5-30-30-30z"/></svg>