
<svg xmlns="http://www.w3.org/2000/svg" fill="none" viewBox="0 0 64 64" aria-hidden="true"><path fill="#DE2910" d="M32 62.72c16.966 0 30.72-13.754 30.72-30.72S48.966 1.28 32 1.28 1.28 15.034 1.28 32 15.034 62.72 32 62.72z"/><path fill="#fff" d="M30.96 31.45c-.915-.784-1.61-1.914-1.974-3.239a7.367 7.367 0 01.857-5.85l.23.145a7.108 7.108 0 00-.828 5.638c.393 1.424 1.232 2.62 2.278 3.363-1.76-1.93-1.072-5.03 1.655-6.259 1.804-.81 3.26-4.147 1.926-6.224-1.19-1.853-.886-3.853 1.194-4.925-9.943-.678-14.695 12.34-5.338 17.35zm-.547-11.712l.829.768 1.05-.416-.478 1.027.717.873-1.117-.137-.604.953-.224-1.107-1.092-.281.986-.554-.067-1.126zM32.208 36.848a7.37 7.37 0 01-4.131 4.227l-.1-.25a7.069 7.069 0 003.981-4.073c.522-1.386.544-2.845.135-4.064.288 2.595-2.09 4.7-5.021 4.09-1.936-.404-5.075 1.44-5.216 3.9-.125 2.199-1.546 3.642-3.862 3.28 7.644 6.397 19.145-1.344 14.521-10.896.282 1.175.18 2.5-.307 3.786zm-5.526 5.069l-.605.953-.221-1.11-1.094-.282.982-.553-.067-1.127.829.765 1.05-.416-.474 1.027.72.874-1.12-.131z"/><path fill="#fff" d="M33.165 31.818c1.197.099 2.425.601 3.497 1.459a7.36 7.36 0 012.743 5.238l-.269.02a7.108 7.108 0 00-2.643-5.047c-1.155-.925-2.538-1.398-3.824-1.382 2.56.528 3.824 3.44 2.339 6.038-.982 1.718-.198 5.27 2.1 6.166 2.05.8 2.982 2.596 1.926 4.688 8.448-5.296 4.643-18.624-5.87-17.18zm6.205 9.02l-.605.954-.221-1.107-1.091-.282.982-.553-.07-1.13.829.768 1.05-.416-.474 1.027.72.874-1.12-.135z"/><path fill="#fff" d="M32.256 30.842c.464-1.114 1.325-2.122 2.47-2.88a7.355 7.355 0 015.828-.99l-.064.26a7.084 7.084 0 00-5.616.957c-1.239.813-2.116 1.984-2.496 3.21 1.292-2.27 4.454-2.577 6.467-.359 1.328 1.466 4.953 1.818 6.512-.093 1.395-1.705 3.389-2.035 5.053-.384-2.43-9.67-16.282-10.173-18.154.279zm10.093-2.381l-.605.953-.22-1.11-1.095-.282.985-.55-.07-1.126.829.768 1.05-.416-.474 1.024.72.873-1.12-.134zM31.117 32.806c-1.024.628-2.317.941-3.69.88a7.36 7.36 0 01-5.296-2.624l.205-.172a7.094 7.094 0 005.104 2.528c1.478.067 2.877-.362 3.907-1.127-2.38 1.075-5.117-.534-5.44-3.51-.217-1.965-2.94-4.381-5.325-3.754-2.13.56-3.939-.345-4.313-2.662-3.725 9.251 7.19 17.798 14.848 10.441zM20.79 29.162l-.067-1.124.829.765 1.046-.413-.473 1.024.72.874-1.12-.134-.605.95-.22-1.107-1.095-.285.985-.55z"/><path fill="#CCC" d="M32 1.6c16.64 0 30.4 13.76 30.4 30.4S48.64 62.4 32 62.4 1.6 48.64 1.6 32 15.36 1.6 32 1.6zM32 0C14.4 0 0 14.4 0 32s14.4 32 32 32 32-14.4 32-32S49.6 0 32 0z"/></svg>