
<svg xmlns="http://www.w3.org/2000/svg" fill="none" viewBox="0 0 64 64" aria-hidden="true"><path fill="#fff" stroke="#B6B6B6" stroke-width=".15" d="M32 62.72c16.966 0 30.72-13.754 30.72-30.72S48.966 1.28 32 1.28 1.28 15.034 1.28 32 15.034 62.72 32 62.72z"/><path fill="#00298C" d="M60.934 42.24H3.066C7.286 54.166 18.63 62.72 32 62.72c13.37 0 24.714-8.557 28.934-20.48z"/><path fill="#DE1818" d="M32 1.28c-13.37 0-24.714 8.557-28.934 20.48h57.868C56.714 9.837 45.37 1.28 32 1.28z"/><path fill="#fff" d="M19.792 21.466c3.773-1.344 7.952-2.064 12.038-2.077 4.09-.01 8.256.63 12.375 2.109l3.065-6.183-2.153-3.757s-3.847 1.578-3.879 1.578c-.032 0-2.71-2.95-2.71-2.95l-3.44 2.08-3.232-2.47-3.037 2.431-3.545-2.051-2.592 3.075-3.879-1.657-2.073 3.718 3.062 6.154z"/><path stroke="#DE1818" stroke-linecap="round" stroke-width=".16" d="M19.792 21.466c3.773-1.344 7.952-2.064 12.038-2.077 4.09-.01 8.256.63 12.375 2.109l3.065-6.183-2.153-3.757s-3.847 1.578-3.879 1.578c-.032 0-2.71-2.95-2.71-2.95l-3.44 2.08-3.232-2.47-3.037 2.431-3.545-2.051-2.592 3.075-3.879-1.657-2.073 3.718 3.062 6.154z"/><path fill="#087BA5" d="M39.446 19.75l1.754-6.204 3.76-1.527 1.98 3.328-2.844 5.815c-1.632-.653-2.509-.938-4.65-1.412z"/><path stroke="#3477D9" stroke-width=".05" d="M39.446 19.75l1.754-6.204 3.76-1.527 1.98 3.328-2.844 5.815c-1.632-.653-2.509-.938-4.65-1.412z"/><path fill="#087BA5" d="M29.546 19.075l-.59-6.425 2.986-2.375 3.12 2.368-.55 6.439c-1.718-.093-2.947-.09-4.966-.007z"/><path stroke="#3477D9" stroke-width=".05" d="M29.546 19.075l-.59-6.425 2.986-2.375 3.12 2.368-.55 6.439c-1.718-.093-2.947-.09-4.966-.007z"/><path fill="#087BA5" d="M19.94 21.155l-2.788-5.891 1.862-3.254 3.86 1.68 1.632 6.08c-1.76.364-2.695.662-4.567 1.385z"/><path stroke="#3477D9" stroke-width=".05" d="M19.94 21.155l-2.788-5.891 1.862-3.254 3.86 1.68 1.632 6.08c-1.76.364-2.695.662-4.567 1.385z"/><path fill="#fff" d="M19.347 18.198c.855.084 1.453.039 2.189-.21.87-.41 1.146-.884 1.408-1.265.205.743.128 1.443-.854 2.016-.887.461-2.157.323-2.743-.54z"/><path stroke="#fff" stroke-width=".046" d="M19.347 18.198c.855.084 1.453.039 2.189-.21.87-.41 1.146-.884 1.408-1.265.205.743.128 1.443-.854 2.016-.887.461-2.157.323-2.743-.54z"/><path fill="#FFFA00" d="M32.755 13.648l-.17.038.007.304-.205.048-.144.266.09.083-.067.202.054.07.054.167.138.016.038.195.218.032.202.147.016.086.23.007.16.051.554-.064.073-.115.007-.154.297-.01.029-.249h.157l-.023-.278.132.012-.032-.134-.08-.109-.02-.173-.23-.227-.051-.297-.154-.07-.006-.2.166-.23-.013-.092-.156-.004-.119.096-.153.016v.07l.038.135h-.176l-.006-.208-.253-.121-.237.16-.01.185-.115.032-.115-.173-.205-.076-.109-.007-.003.135.211.275-.019.163z"/><path stroke="#CCA300" stroke-width=".05" d="M32.755 13.648l-.17.038.007.304-.205.048-.144.266.09.083-.067.202.054.07.054.167.138.016.038.195.218.032.202.147.016.086.23.007.16.051.554-.064.073-.115.007-.154.297-.01.029-.249h.157l-.023-.278.132.012-.032-.134-.08-.109-.02-.173-.23-.227-.051-.297-.154-.07-.006-.2.166-.23-.013-.092-.156-.004-.119.096-.153.016v.07l.038.135h-.176l-.006-.208-.253-.121-.237.16-.01.185-.115.032-.115-.173-.205-.076-.109-.007-.003.135.211.275-.019.163zM34.342 14.762l-.048-.164M34.467 14.49l-.077-.116"/><path fill="#CCA300" d="M32.34 14.365l.24-.016.047.217.08.07.016.394.077.036.022-.16.19-.013.034.32-.044.038.019.048.22-.003.055-.083.128-.01.051.093.035-.122.122-.044.096.153.163-.022-.099-.096-.042-.205.228-.122.092.15h.08l-.099-.172v-.358l.173-.234.243-.026V14.1l-.243-.22-.064-.305-.134-.067-.039.039-.15.016.15.217v.144l.067.035-.012.397-.167.026-.016.22-.105.103-.064.208-.1.125-.185.003-.112-.109-.02-.15-.076-.023-.042-.166-.128-.07-.006-.1-.128-.054-.016-.093-.064-.045-.007-.243.112-.019-.06-.077-.023-.07v-.07l.093-.09-.166-.02-.16.068-.004.291-.185.06-.15.238.076.067z"/><path stroke="#CCA300" stroke-width=".05" d="M32.34 14.365l.24-.016.047.217.08.07.016.394.077.032.022-.156.19-.013.034.32-.044.038.019.048.22-.003.055-.083.128-.01.051.093.035-.122.122-.044.096.153.163-.022-.099-.096-.042-.205.228-.122.092.15h.08l-.099-.172v-.358l.173-.234.243-.026V14.1l-.243-.22-.064-.305-.134-.067-.039.039-.15.016.15.217v.144l.067.035-.012.397-.167.026-.016.22-.105.103-.064.208-.1.125-.185.003-.112-.109-.02-.15-.076-.023-.042-.166-.128-.07-.006-.1-.128-.054-.016-.093-.064-.045-.007-.243.112-.019-.06-.077-.023-.07v-.07l.093-.09-.166-.02-.16.068-.004.291-.185.06-.15.238.076.067z"/><path fill="#663D19" d="M33.283 14.762l.122-.07-.003-.142-.119-.028-.045-.045.132.022.166-.01.054-.028c-.025.057-.038.051-.044.051-.004 0-.093.045-.093.045l.006.134.279.039c-.004 0 0 .05-.01.05s-.291-.06-.291-.06l-.18.109.026-.067z"/><path stroke="#CCA300" stroke-width=".02" d="M33.283 14.762l.122-.07-.003-.142-.119-.028-.045-.045.132.022.166-.01.054-.028c-.025.057-.038.051-.044.051-.004 0-.093.045-.093.045l.006.134.279.039c-.004 0 0 .05-.01.05s-.291-.06-.291-.06l-.18.109.026-.067z"/><path fill="#CCA300" d="M33.997 13.926l-.167.125-.102.186-.054.01-.16-.212-.183.003s-.102.247-.102.253c0 .003-.074-.01-.074-.01l-.192-.204s-.057-.106-.048-.106l.48.003-.006-.22s-.074-.023-.112-.045c.029-.01.262-.01.262-.01l-.102.067v.192l.416.004.144-.036z"/><path stroke="#CCA300" stroke-width=".05" d="M33.997 13.926l-.167.125-.102.186-.054.01-.16-.212-.183.003s-.102.247-.102.253c0 .003-.074-.01-.074-.01l-.192-.204s-.057-.106-.048-.106l.48.003-.006-.22s-.074-.023-.112-.045c.029-.01.262-.01.262-.01l-.102.067v.192l.416.004.144-.036z"/><path fill="#663D19" d="M33.146 14.035h.038c.02 0 .035.016.035.035v.039c0 .019-.016.035-.035.035h-.038a.036.036 0 01-.036-.035v-.042c0-.016.013-.032.036-.032zM33.664 14.013h.038c.02 0 .036.016.036.035v.038c0 .02-.016.036-.036.036h-.038a.036.036 0 01-.035-.036v-.038c.003-.02.019-.035.035-.035z"/><path stroke="#CCA300" stroke-width=".05" d="M32.864 13.68c.176-.067.298-.122.512-.144.202-.022.358.006.54.038"/><path fill="#CCA300" d="M32.96 13.312h-.144l-.198-.208.112.013.134.057.096.138z"/><path stroke="#CCA300" stroke-width=".05" d="M32.96 13.312h-.144l-.198-.208.112.013.134.057.096.138z"/><path fill="#CCA300" d="M33.814 13.232l.32-.24-.105-.013-.119.106-.144.022.048.125z"/><path stroke="#CCA300" stroke-width=".05" d="M33.814 13.232l.32-.24-.105-.013-.119.106-.144.022.048.125z"/><path fill="#CCA300" d="M33.626 13.277l-.503.019.003-.054.186-.02.022-.07h.055l.041.07.176.03.02.025z"/><path stroke="#CCA300" stroke-width=".05" d="M33.626 13.277l-.503.019.003-.054.186-.02.022-.07h.055l.041.07.176.03.02.025z"/><path fill="#CCA300" d="M33.6 13.088l-.176.006-.013-.096.189.09z"/><path stroke="#CCA300" stroke-width=".05" d="M33.6 13.088l-.176.006-.013-.096.189.09z"/><path fill="#CCA300" d="M33.306 13.005l-.013.093-.17.028.183-.121z"/><path stroke="#CCA300" stroke-width=".05" d="M33.306 13.005l-.013.093-.17.028.183-.121z"/><path fill="#CCA300" d="M32.346 14.723l.086-.214-.077-.15-.077.22.068.144z"/><path stroke="#CCA300" stroke-width=".05" d="M32.346 14.723l.086-.214-.077-.15-.077.22.068.144z"/><path fill="#CCA300" d="M32.518 14.838l.11-.256-.206.205.096.051z"/><path stroke="#CCA300" stroke-width=".05" d="M32.518 14.838l.11-.256-.206.205.096.051z"/><path fill="#FFFA00" d="M29.98 13.738l-.169.038.007.304-.205.048-.144.266.09.083-.068.201.055.07.054.164.138.02.035.194.22.032.202.144.013.09.234.006.16.052.553-.064.074-.112.006-.157.298-.01.025-.25h.16l-.022-.278.131.013-.032-.134-.08-.11-.019-.172-.234-.227-.048-.298-.15-.07-.01-.202.17-.23-.016-.09-.157-.003-.118.093-.154.019v.07l.039.135h-.176l-.01-.208-.253-.122-.23.16-.016.183-.112.035-.115-.173-.208-.077-.106-.006-.006.134.214.275-.02.164z"/><path stroke="#CCA300" stroke-width=".05" d="M29.98 13.738l-.169.038.007.304-.205.048-.144.266.09.083-.068.201.055.07.054.164.138.02.035.194.22.032.202.144.013.09.234.006.16.052.553-.064.074-.112.006-.157.298-.01.025-.25h.16l-.022-.278.131.013-.032-.134-.08-.11-.019-.172-.234-.227-.048-.298-.15-.07-.01-.202.17-.23-.016-.09-.157-.003-.118.093-.154.019v.07l.039.135h-.176l-.01-.208-.253-.122-.23.16-.016.183-.112.035-.115-.173-.208-.077-.106-.006-.006.134.214.275-.02.164zM31.565 14.851l-.048-.166M31.693 14.58l-.077-.116"/><path fill="#CCA300" d="M29.565 14.451l.24-.01.045.215.083.07.016.397.077.029.019-.157.189-.013.038.317-.048.042.02.048.223-.003.055-.087.13-.006.049.093.035-.122.122-.045.096.154.163-.023-.1-.096-.041-.204.227-.122.093.15h.08l-.1-.172v-.359l.174-.233.243-.026v-.1l-.243-.22-.064-.304-.135-.067-.038.038-.15.016.15.218v.144l.067.038-.01.394-.17.025-.015.218-.106.106-.064.204-.102.128-.186.004-.109-.11-.016-.15-.08-.022-.041-.166-.128-.074-.01-.096-.125-.058-.016-.09-.06-.04-.007-.25.109-.013-.06-.08-.023-.07v-.074l.093-.087-.167-.019-.16.067-.003.292-.189.057-.15.237.08.067z"/><path stroke="#CCA300" stroke-width=".05" d="M29.565 14.451l.24-.01.045.215.083.07.016.397.077.029.019-.157.189-.013.038.317-.048.042.02.048.223-.003.055-.087.13-.006.049.093.035-.122.122-.045.096.154.163-.023-.1-.096-.041-.204.227-.122.093.15h.08l-.1-.172v-.359l.174-.233.243-.026v-.1l-.243-.22-.064-.304-.135-.067-.038.038-.15.016.15.218v.144l.067.038-.01.394-.17.025-.015.218-.106.106-.064.204-.102.128-.186.004-.109-.11-.016-.15-.08-.022-.041-.166-.128-.074-.01-.096-.125-.058-.016-.09-.06-.04-.007-.25.109-.013-.06-.08-.023-.07v-.074l.093-.087-.167-.019-.16.067-.003.292-.189.057-.15.237.08.067z"/><path fill="#663D19" d="M30.509 14.851l.121-.07-.003-.141-.118-.029-.045-.041.131.022.167-.013.05-.029c-.018.058-.038.055-.044.055-.003 0-.093.045-.093.045l.007.134.278.038c-.003 0 0 .052-.01.052s-.29-.061-.29-.061l-.177.105.026-.067z"/><path stroke="#CCA300" stroke-width=".02" d="M30.509 14.851l.121-.07-.003-.141-.118-.029-.045-.041.131.022.167-.013.05-.029c-.018.058-.038.055-.044.055-.003 0-.093.045-.093.045l.007.134.278.038c-.003 0 0 .052-.01.052s-.29-.061-.29-.061l-.177.105.026-.067z"/><path fill="#CCA300" d="M31.222 14.016l-.166.128-.102.182-.058.01-.16-.211-.18.006s-.102.247-.102.253c0 .003-.073-.01-.073-.01l-.192-.204s-.058-.106-.048-.106l.48.003-.007-.224s-.073-.022-.112-.045c.03-.01.263-.01.263-.01l-.103.068v.192l.416.003.144-.035z"/><path stroke="#CCA300" stroke-width=".05" d="M31.222 14.016l-.166.128-.102.182-.058.01-.16-.211-.18.006s-.102.247-.102.253c0 .003-.073-.01-.073-.01l-.192-.204s-.058-.106-.048-.106l.48.003-.007-.224s-.073-.022-.112-.045c.03-.01.263-.01.263-.01l-.103.068v.192l.416.003.144-.035z"/><path fill="#663D19" d="M30.368 14.125h.038c.02 0 .036.016.036.035v.038c0 .02-.016.036-.036.036h-.038a.036.036 0 01-.035-.036v-.038c.003-.02.016-.035.035-.035zM30.89 14.102h.038c.02 0 .035.016.035.036v.038c0 .02-.016.035-.035.035h-.038a.036.036 0 01-.036-.035v-.038c.004-.02.02-.036.036-.036z"/><path stroke="#CCA300" stroke-width=".05" d="M30.09 13.766c.176-.067.297-.121.512-.144.201-.019.358.007.537.042"/><path fill="#CCA300" d="M30.186 13.402h-.144l-.199-.208.115.012.132.058.096.138z"/><path stroke="#CCA300" stroke-width=".05" d="M30.186 13.402h-.144l-.199-.208.115.012.132.058.096.138z"/><path fill="#CCA300" d="M31.04 13.322l.317-.244-.103-.01-.118.106-.144.023.048.125z"/><path stroke="#CCA300" stroke-width=".05" d="M31.04 13.322l.317-.244-.103-.01-.118.106-.144.023.048.125z"/><path fill="#CCA300" d="M30.851 13.37l-.502.016.003-.055.186-.019.022-.07h.054l.042.067.176.032.02.029z"/><path stroke="#CCA300" stroke-width=".05" d="M30.851 13.37l-.502.016.003-.055.186-.019.022-.07h.054l.042.067.176.032.02.029z"/><path fill="#CCA300" d="M30.822 13.18l-.17.004-.015-.096.185.093z"/><path stroke="#CCA300" stroke-width=".05" d="M30.822 13.18l-.17.004-.015-.096.185.093z"/><path fill="#CCA300" d="M30.531 13.094l-.013.093-.17.029.183-.122z"/><path stroke="#CCA300" stroke-width=".05" d="M30.531 13.094l-.013.093-.17.029.183-.122z"/><path fill="#CCA300" d="M29.574 14.813l.084-.215-.077-.147-.077.218.07.144z"/><path stroke="#CCA300" stroke-width=".05" d="M29.574 14.813l.084-.215-.077-.147-.077.218.07.144z"/><path fill="#CCA300" d="M29.744 14.928l.106-.253-.199.205.093.048z"/><path stroke="#CCA300" stroke-width=".05" d="M29.744 14.928l.106-.253-.199.205.093.048z"/><path fill="#00298C" d="M34.557 19.072l.557-6.445 3.414-1.961 2.64 2.86-1.76 6.208c-1.706-.348-2.682-.499-4.851-.662z"/><path stroke="#000082" stroke-width=".05" d="M34.557 19.072l.557-6.445 3.414-1.961 2.64 2.86-1.76 6.208c-1.706-.348-2.682-.499-4.851-.662z"/><path fill="#FFFA00" d="M31.42 16.144l-.169.042.007.304-.208.044-.144.27.09.082-.068.199.054.07.058.167.138.019.035.192.217.035.208.144.013.09.23.006.157.048.554-.06.074-.116.006-.157.298-.006.028-.25h.157l-.019-.281.131.012-.032-.13-.083-.113-.016-.17-.234-.227-.05-.297-.148-.074-.013-.198.17-.23-.016-.093-.157-.004-.112.096-.157.02v.07l.039.131h-.18l-.006-.205-.25-.124-.236.163-.013.182-.115.035-.116-.172-.201-.077-.112-.007-.003.132.21.278-.015.16z"/><path stroke="#CCA300" stroke-width=".05" d="M31.42 16.144l-.169.042.007.304-.208.044-.144.27.09.082-.068.199.054.07.058.167.138.019.035.192.217.035.208.144.013.09.23.006.157.048.554-.06.074-.116.006-.157.298-.006.028-.25h.157l-.019-.281.131.012-.032-.13-.083-.113-.016-.17-.234-.227-.05-.297-.148-.074-.013-.198.17-.23-.016-.093-.157-.004-.112.096-.157.02v.07l.039.131h-.18l-.006-.205-.25-.124-.236.163-.013.182-.115.035-.116-.172-.201-.077-.112-.007-.003.132.21.278-.015.16zM33.005 17.26l-.045-.166M33.13 16.986l-.077-.112"/><path fill="#CCA300" d="M31.002 16.86l.243-.012.045.214.083.074.013.39.076.036.026-.157.186-.016.038.32-.048.041.02.048.223-.003.055-.086.128-.01.048.096.038-.121.118-.045.096.15.167-.022-.103-.093-.038-.208.227-.118.09.15h.083l-.1-.176v-.355l.174-.234.24-.029v-.096l-.24-.224-.064-.304-.138-.067-.035.042-.154.016.154.217v.144l.067.036-.013.393-.17.029-.015.218-.103.105-.067.205-.096.125-.189.003-.109-.106-.019-.15-.077-.026-.044-.166-.125-.07-.01-.1-.125-.054-.016-.093-.064-.038-.006-.25.109-.016-.061-.08-.02-.07v-.07l.09-.09-.166-.016-.157.067-.003.291-.189.058-.15.237.077.067z"/><path stroke="#CCA300" stroke-width=".05" d="M31.002 16.86l.243-.012.045.214.083.074.013.39.076.036.026-.157.186-.016.038.32-.048.041.02.048.223-.003.055-.086.128-.01.048.096.038-.121.118-.045.096.15.167-.022-.103-.093-.038-.208.227-.118.09.15h.083l-.1-.176v-.355l.174-.234.24-.029v-.096l-.24-.224-.064-.304-.138-.067-.035.042-.154.016.154.217v.144l.067.036-.013.393-.17.029-.015.218-.103.105-.067.205-.096.125-.189.003-.109-.106-.019-.15-.077-.026-.044-.166-.125-.07-.01-.1-.125-.054-.016-.093-.064-.038-.006-.25.109-.016-.061-.08-.02-.07v-.07l.09-.09-.166-.016-.157.067-.003.291-.189.058-.15.237.077.067z"/><path fill="#663D19" d="M31.949 17.26l.121-.07-.003-.137-.118-.029-.048-.045.131.023.166-.013.058-.029c-.026.058-.038.054-.045.054-.003 0-.093.045-.093.045l.007.131.278.039c-.003 0 0 .051-.01.051-.009 0-.29-.06-.29-.06l-.183.108.029-.067z"/><path stroke="#CCA300" stroke-width=".02" d="M31.949 17.26l.121-.07-.003-.137-.118-.029-.048-.045.131.023.166-.013.058-.029c-.026.058-.038.054-.045.054-.003 0-.093.045-.093.045l.007.131.278.039c-.003 0 0 .051-.01.051-.009 0-.29-.06-.29-.06l-.183.108.029-.067z"/><path fill="#CCA300" d="M32.66 16.426l-.167.124-.103.186-.054.01-.16-.212h-.186s-.102.247-.102.253c0 .007-.074-.01-.074-.01l-.185-.201s-.058-.106-.048-.106l.48.004-.003-.224s-.074-.023-.112-.045c.028-.01.262-.01.262-.01l-.102.067v.192l.416.004.137-.032z"/><path stroke="#CCA300" stroke-width=".05" d="M32.66 16.426l-.167.124-.103.186-.054.01-.16-.212h-.186s-.102.247-.102.253c0 .007-.074-.01-.074-.01l-.185-.201s-.058-.106-.048-.106l.48.004-.003-.224s-.074-.023-.112-.045c.028-.01.262-.01.262-.01l-.102.067v.192l.416.004.137-.032z"/><path fill="#663D19" d="M31.808 16.531h.038c.02 0 .036.016.036.035v.039c0 .019-.016.035-.036.035h-.038c-.022 0-.038-.016-.038-.035v-.039c.003-.019.019-.035.038-.035zM32.33 16.512h.038c.02 0 .035.016.035.035v.039c0 .019-.016.035-.035.035h-.038a.036.036 0 01-.036-.035v-.042c0-.02.016-.032.036-.032z"/><path stroke="#CCA300" stroke-width=".05" d="M31.526 16.176c.176-.067.298-.122.512-.144.202-.022.359.006.541.038"/><path fill="#CCA300" d="M31.622 15.811h-.14l-.202-.208.115.01.131.06.096.138z"/><path stroke="#CCA300" stroke-width=".05" d="M31.622 15.811h-.14l-.202-.208.115.01.131.06.096.138z"/><path fill="#CCA300" d="M32.48 15.731l.32-.243-.109-.013-.115.109-.144.02.048.127z"/><path stroke="#CCA300" stroke-width=".05" d="M32.48 15.731l.32-.243-.109-.013-.115.109-.144.02.048.127z"/><path fill="#CCA300" d="M32.288 15.776l-.5.02.004-.055.182-.02.023-.07h.054l.045.067.176.032.016.026z"/><path stroke="#CCA300" stroke-width=".05" d="M32.288 15.776l-.5.02.004-.055.182-.02.023-.07h.054l.045.067.176.032.016.026z"/><path fill="#CCA300" d="M32.266 15.587l-.176.007-.013-.096.189.09z"/><path stroke="#CCA300" stroke-width=".05" d="M32.266 15.587l-.176.007-.013-.096.189.09z"/><path fill="#CCA300" d="M31.968 15.504l-.01.093-.17.025.18-.118z"/><path stroke="#CCA300" stroke-width=".05" d="M31.968 15.504l-.01.093-.17.025.18-.118z"/><path fill="#CCA300" d="M31.011 17.22l.087-.215-.077-.15-.077.22.067.144z"/><path stroke="#CCA300" stroke-width=".05" d="M31.011 17.22l.087-.215-.077-.15-.077.22.067.144z"/><path fill="#CCA300" d="M31.187 17.338l.103-.256-.202.208.1.048z"/><path stroke="#CCA300" stroke-width=".05" d="M31.187 17.338l.103-.256-.202.208.1.048z"/><path fill="#DE1818" d="M35.402 17.917l-.173.198.013.17.355-.007c.115-.028.14-.067.166-.115.035-.057.013-.09.02-.166l-.381-.08z"/><path stroke="#E61717" stroke-width=".05" d="M35.402 17.917l-.173.198.013.17.355-.007c.115-.028.14-.067.166-.115.035-.057.013-.09.02-.166l-.381-.08z"/><path fill="#DE1818" d="M36.246 18.394l-.156.121-.016.154.316.022c.116-.016.132-.035.16-.08.039-.054.03-.051.045-.128l-.349-.09z"/><path stroke="#E61717" stroke-width=".05" d="M36.246 18.394l-.156.121-.016.154.316.022c.116-.016.132-.035.16-.08.039-.054.03-.051.045-.128l-.349-.09z"/><path fill="#DE1818" d="M37.645 17.987l-.167.17.007.128.336.013c.115-.03.096-.023.131-.08.035-.058.026-.068.035-.144l-.342-.087z"/><path stroke="#E61717" stroke-width=".05" d="M37.645 17.987l-.167.17.007.128.336.013c.115-.03.096-.023.131-.08.035-.058.026-.068.035-.144l-.342-.087z"/><path fill="#DE1818" d="M38.627 18.291l-.192.163v.164l.355.032c.116-.03.122-.061.15-.103.04-.057.02-.06.03-.137l-.343-.119z"/><path stroke="#E61717" stroke-width=".05" d="M38.627 18.291l-.192.163v.164l.355.032c.116-.03.122-.061.15-.103.04-.057.02-.06.03-.137l-.343-.119z"/><path fill="#DE1818" d="M36.237 14.07l.672.445c.125-.105.387-.041.493-.013.185.048.313.157.476.19.295.073.65.124.916.095.268-.029.492-.17.69-.269v-.064h-.13c-.215.077-.512.08-.743.052-.23-.032-.291-.132-.633-.234l-.03-.064c.417.02.5.01.673-.067.17-.045.246-.144.345-.211l-.003-.077-.121-.007c-.16.11-.266.125-.51.106-.223-.022-.425-.15-.575-.154-.16 0-.154-.076-.307-.083a2.4 2.4 0 00-.743.067c-.288.084-.33.154-.47.288z"/><path stroke="#C00" stroke-width=".05" d="M36.237 14.07l.672.445c.125-.105.387-.041.493-.013.185.048.313.157.476.19.295.073.65.124.916.095.268-.029.492-.17.69-.269v-.064h-.13c-.215.077-.512.08-.743.052-.23-.032-.291-.132-.633-.234l-.03-.064c.417.02.5.01.673-.067.17-.045.246-.144.345-.211l-.003-.077-.121-.007c-.16.11-.266.125-.51.106-.223-.022-.425-.15-.575-.154-.16 0-.154-.076-.307-.083a2.4 2.4 0 00-.743.067c-.288.084-.33.154-.47.288z"/><path fill="#8E3737" d="M36.368 13.974c.064.016.134.036.192.061.051.032.038.032.096.07-.01-.05-.006-.047-.042-.092-.038-.042-.096-.08-.144-.115l-.102.076z"/><path stroke="#8F3636" stroke-width=".05" d="M36.368 13.974c.064.016.134.036.192.061.051.032.038.032.096.07-.01-.05-.006-.047-.042-.092-.038-.042-.096-.08-.144-.115l-.102.076z"/><path fill="#8E3737" d="M36.928 14.451c0-.057-.029-.109-.051-.16-.023-.048-.039-.093-.083-.144.05.016.08.039.124.09.042.051.042.105.052.182l-.042.032z"/><path stroke="#8F3636" stroke-width=".05" d="M36.928 14.451c0-.057-.029-.109-.051-.16-.023-.048-.039-.093-.083-.144.05.016.08.039.124.09.042.051.042.105.052.182l-.042.032z"/><path fill="#8E3737" d="M37.056 13.747c.016.039.045.067.07.154.023.077.036.189.036.189-.01-.058.006-.122-.004-.183-.01-.06-.038-.109-.048-.166l-.054.006z"/><path stroke="#8F3636" stroke-width=".05" d="M37.056 13.747c.016.039.045.067.07.154.023.077.036.189.036.189-.01-.058.006-.122-.004-.183-.01-.06-.038-.109-.048-.166l-.054.006z"/><path fill="#8E3737" d="M37.603 13.78l.029.322.029-.3-.058-.023z"/><path stroke="#8F3636" stroke-width=".05" d="M37.603 13.78l.029.322.029-.3-.058-.023z"/><path fill="#8E3737" d="M37.472 14.448a.43.43 0 00.003-.157c-.006-.051-.025-.096-.041-.157.05.042.073.103.102.16a.21.21 0 01-.064.154z"/><path stroke="#8F3636" stroke-width=".05" d="M37.472 14.448a.43.43 0 00.003-.157c-.006-.051-.025-.096-.041-.157.05.042.073.103.102.16a.21.21 0 01-.064.154z"/><path fill="#8E3737" d="M38.032 14.304a.39.39 0 01-.01.189c-.025.08-.041.083-.09.125.062-.045.116-.061.135-.112.026-.074-.025-.19-.035-.202z"/><path stroke="#8F3636" stroke-width=".05" d="M38.032 14.304a.39.39 0 01-.01.189c-.025.08-.041.083-.09.125.062-.045.116-.061.135-.112.026-.074-.025-.19-.035-.202z"/><path fill="#8E3737" d="M38.131 14.202c-.038.006-.045-.157-.07-.234.016-.01.035-.006.048.032.022.02.016.134.022.202z"/><path stroke="#8F3636" stroke-width=".05" d="M38.131 14.202c-.038.006-.045-.157-.07-.234.016-.01.035-.006.048.032.022.02.016.134.022.202z"/><path fill="#8E3737" d="M38.518 14.138l.016-.135.042-.006v.118l-.058.023z"/><path stroke="#8F3636" stroke-width=".05" d="M38.518 14.138l.016-.135.042-.006v.118l-.058.023z"/><path fill="#8E3737" d="M38.49 14.496c.025.038.067.09.073.131.007.045-.01.067-.041.135l.06.003a.198.198 0 00.039-.135.173.173 0 00-.07-.118l-.061-.016z"/><path stroke="#8F3636" stroke-width=".05" d="M38.49 14.496c.025.038.067.09.073.131.007.045-.01.067-.041.135l.06.003a.198.198 0 00.039-.135.173.173 0 00-.07-.118l-.061-.016z"/><path fill="#8E3737" d="M38.95 14.528l.013.189.055-.026-.013-.163h-.055z"/><path stroke="#8F3636" stroke-width=".05" d="M38.95 14.528l.013.189.055-.026-.013-.163h-.055z"/><path fill="#FFFA00" d="M36.195 14.106c-.153.041-.205.128-.281.198l-.426-.218a.191.191 0 00-.064.224c.035.084.17.215.266.279a1.649 1.649 0 01-.103.307c-.045.115-.147.26-.15.307-.007.051-.026.17.054.195.08.032.336-.022.423-.016-.016.045-.045.125-.039.16.013.036.035.045.106.048-.023.042-.064.096-.042.122.051.038.115.035.167.032a1.581 1.581 0 01-.128.131 4.84 4.84 0 00-.224.224c-.07.096-.077.195.06.189-.048.054-.099.112-.092.16.012.058.038.096.137.064-.057.128-.019.246 0 .38-.048.103-.029.196-.038.318-.103.054-.115.128-.18.243-.057.121-.166.157-.227.422l.39.1c.017-.055.065-.09.08-.145a.495.495 0 00.007-.182c.077-.115.237-.346.285-.47a.477.477 0 01.211-.074c.064 0 .106.038.173.074-.032.105-.115.217-.118.364v.404c-.016.102-.132.102-.18.403l.352.093c.058-.103.154-.116.18-.157l.025-.423c.042-.195.323-.361.327-.576.102 0 .137.01.179-.012.051-.02.07-.048.115-.087.016.064.067.07.112.07.042 0 .128-.06.166-.086.026.035.039.067.09.08a.82.82 0 00.26-.025l-.289.473c-.013.045.003.074-.019.125-.022.048-.064.07-.083.115l.33.077.05-.138c.068-.028.125-.044.164-.09.038-.044.038-.127.057-.178.112-.08.288-.26.413-.404a.368.368 0 01.25.19c.006.111.016.316-.039.457l-.21.333-.026.054.336.118.21-.163.01-.233c.11-.19.26-.292.407-.413 0-.007.016-.25.01-.26-.039-.028-.061-.012-.074-.06a1.035 1.035 0 01.003-.243c.022-.026.064-.055.064-.08-.058-.064-.038-.228-.022-.356-.004-.147.192-.32.224-.403V16c-.023-.038-.048-.058-.052-.093 0-.032.039-.086.064-.118l.042-.07-.006-.369c-.013-.038-.045-.105-.08-.112-.036-.006-.084.032-.119.07l-.192.142a.56.56 0 01-.336 0l-.246.006c-.128.038-.195.042-.32-.013l-.147.003c-.045.026-.11.064-.16.074a.366.366 0 01-.167-.003c-.377.025-.281.051-.393.077-.087-.016-.058-.058-.397-.061l-.131-.039c-.17-.112-.298-.288-.413-.496.349-.102.499-.204.605-.444l-.496.019-.695-.467z"/><path stroke="#EFD608" stroke-width=".05" d="M36.195 14.106c-.153.041-.205.128-.281.198l-.426-.218a.191.191 0 00-.064.224c.035.084.17.215.266.279a1.649 1.649 0 01-.103.307c-.045.115-.147.26-.15.307-.007.051-.026.17.054.195.08.032.336-.022.423-.016-.016.045-.045.125-.039.16.013.036.035.045.106.048-.023.042-.064.096-.042.122.051.038.115.035.167.032a1.581 1.581 0 01-.128.131 4.84 4.84 0 00-.224.224c-.07.096-.077.195.06.189-.048.054-.099.112-.092.16.012.058.038.096.137.064-.057.128-.019.246 0 .38-.048.103-.029.196-.038.318-.103.054-.115.128-.18.243-.057.121-.166.157-.227.422l.39.1c.017-.055.065-.09.08-.145a.495.495 0 00.007-.182c.077-.115.237-.346.285-.47a.477.477 0 01.211-.074c.064 0 .106.038.173.074-.032.105-.115.217-.118.364v.404c-.016.102-.132.102-.18.403l.352.093c.058-.103.154-.116.18-.157l.025-.423c.042-.195.323-.361.327-.576.102 0 .137.01.179-.012.051-.02.07-.048.115-.087.016.064.067.07.112.07.042 0 .128-.06.166-.086.026.035.039.067.09.08a.82.82 0 00.26-.025l-.289.473c-.013.045.003.074-.019.125-.022.048-.064.07-.083.115l.33.077.05-.138c.068-.028.125-.044.164-.09.038-.044.038-.127.057-.178.112-.08.288-.26.413-.404a.368.368 0 01.25.19c.006.111.016.316-.039.457l-.21.333-.026.054.336.118.21-.163.01-.233c.11-.19.26-.292.407-.413 0-.007.016-.25.01-.26-.039-.028-.061-.012-.074-.06a1.035 1.035 0 01.003-.243c.022-.026.064-.055.064-.08-.058-.064-.038-.228-.022-.356-.004-.147.192-.32.224-.403V16c-.023-.038-.048-.058-.052-.093 0-.032.039-.086.064-.118l.042-.07-.006-.369c-.013-.038-.045-.105-.08-.112-.036-.006-.084.032-.119.07l-.192.142a.56.56 0 01-.336 0l-.246.006c-.128.038-.195.042-.32-.013l-.147.003c-.045.026-.11.064-.16.074a.366.366 0 01-.167-.003c-.377.025-.281.051-.393.077-.087-.016-.058-.058-.397-.061l-.131-.039c-.17-.112-.298-.288-.413-.496.349-.102.499-.204.605-.444l-.496.019-.695-.467z"/><path fill="#664C00" d="M36.022 14.717l.141.057c.02.023.048.042.074.045.022 0 .038-.022.057-.038l.128-.067c-.076-.013-.102-.058-.182-.058-.077.003-.138.045-.218.06z"/><path stroke="#664C00" stroke-width=".05" d="M36.022 14.717l.141.057c.02.023.048.042.074.045.022 0 .038-.022.057-.038l.128-.067c-.076-.013-.102-.058-.182-.058-.077.003-.138.045-.218.06z"/><path fill="#CCA300" d="M36.278 16.374c0 .013-.019.023-.032.007a1.304 1.304 0 00-.099-.41c.061.096.109.256.131.403z"/><path stroke="#CCA300" stroke-width=".05" d="M36.278 16.374c0 .013-.019.023-.032.007a1.304 1.304 0 00-.099-.41c.061.096.109.256.131.403z"/><path fill="#CCA300" d="M37.104 16.39c.029.01.067.01.077-.012.013-.036-.026-.074-.039-.116-.044-.092-.073-.192-.092-.236-.023-.013-.042-.013-.039.01.026.086.077.326.093.354z"/><path stroke="#CCA300" stroke-width=".05" d="M37.104 16.39c.029.01.067.01.077-.012.013-.036-.026-.074-.039-.116-.044-.092-.073-.192-.092-.236-.023-.013-.042-.013-.039.01.026.086.077.326.093.354z"/><path fill="#CCA300" d="M37.558 16.342c.004.02-.064-.01-.076-.032 0-.041-.093-.368-.077-.38.019-.01.08.108.099.163 0 .032.042.147.054.25z"/><path stroke="#CCA300" stroke-width=".05" d="M37.558 16.342c.004.02-.064-.01-.076-.032 0-.041-.093-.368-.077-.38.019-.01.08.108.099.163 0 .032.042.147.054.25z"/><path fill="#CCA300" d="M37.491 17.008c0 .022.051.003.074-.013.06-.096.134-.195.16-.233.013-.039.08-.301.057-.298-.006-.006-.064.128-.14.266-.074.134-.15.265-.15.278z"/><path stroke="#CCA300" stroke-width=".05" d="M37.491 17.008c0 .022.051.003.074-.013.06-.096.134-.195.16-.233.013-.039.08-.301.057-.298-.006-.006-.064.128-.14.266-.074.134-.15.265-.15.278z"/><path fill="#CCA300" d="M37.949 16.87c-.023.01.041-.224.048-.268.013-.064.029-.186.054-.34a.94.94 0 01-.102.608z"/><path stroke="#CCA300" stroke-width=".05" d="M37.949 16.87c-.023.01.041-.224.048-.268.013-.064.029-.186.054-.34a.94.94 0 01-.102.608z"/><path fill="#CCA300" d="M38.218 16.147c-.016.013-.208-.31-.192-.31.006-.016.163.201.188.24.007.019.02.048.004.07z"/><path stroke="#CCA300" stroke-width=".05" d="M38.218 16.147c-.016.013-.208-.31-.192-.31.006-.016.163.201.188.24.007.019.02.048.004.07z"/><path fill="#CCA300" d="M38.675 16.387c-.016-.013-.01-.115-.038-.227-.029-.115-.077-.22-.067-.253.01-.016.038-.01.064.013.012.06.038.298.073.451.003.016-.016.026-.032.016z"/><path stroke="#CCA300" stroke-width=".05" d="M38.675 16.387c-.016-.013-.01-.115-.038-.227-.029-.115-.077-.22-.067-.253.01-.016.038-.01.064.013.012.06.038.298.073.451.003.016-.016.026-.032.016z"/><path fill="#CCA300" d="M38.995 16.102c-.019-.016.039.112.083.263.042.15.064.419.074.4.029-.02.026-.042.067-.051.045-.01.211.006.202-.007-.106-.093-.199-.17-.269-.269-.07-.102-.118-.233-.157-.336z"/><path stroke="#CCA300" stroke-width=".05" d="M38.995 16.102c-.019-.016.039.112.083.263.042.15.064.419.074.4.029-.02.026-.042.067-.051.045-.01.211.006.202-.007-.106-.093-.199-.17-.269-.269-.07-.102-.118-.233-.157-.336z"/><path fill="#fff" d="M40.618 15.62c.963.2 1.856.434 2.745.722.89.288 1.741.634 2.605 1.005l-1.446 2.922c-.807-.307-1.604-.557-2.4-.81-.794-.259-1.572-.486-2.381-.733l.877-3.107z"/><path stroke="#fff" stroke-width=".05" d="M40.618 15.62c.963.2 1.856.434 2.745.722.89.288 1.741.634 2.605 1.005l-1.446 2.922c-.807-.307-1.604-.557-2.4-.81-.794-.259-1.572-.486-2.381-.733l.877-3.107z"/><path fill="#DE1818" d="M40.422 16.31s1.344.301 2.65.72c1.306.423 2.576.96 2.573.96-.01 0-.82 1.668-.82 1.668a40.425 40.425 0 00-2.428-.87 29.839 29.839 0 00-2.47-.711l.495-1.767z"/><path stroke="#E61717" stroke-width=".05" d="M40.422 16.31s1.344.301 2.65.72c1.306.423 2.576.96 2.573.96-.01 0-.82 1.668-.82 1.668a40.425 40.425 0 00-2.428-.87 29.839 29.839 0 00-2.47-.711l.495-1.767z"/><path fill="#000" d="M40.538 17.13c.13-.074.22-.096.29-.215h.478l.006.173c.115.054.186.115.3.176.116.054.282.106.4.163l1.028.09c.138.022.336.08.454.15.119.07.196.157.263.269.211.074.422.115.64.15.217.032.49.045.7.055.106.038.106.09.055.144 0 0-.115.157-.432.16-.317 0-.675-.18-.832-.154.006.096.173.295.358.371l-.006.455-.083.073-.093-.06c.074-.11.048-.234.02-.343-.071-.102-.08-.144-.212-.15a1.096 1.096 0 01-.467-.208l-.077.013a.353.353 0 01-.186.172l-.201-.012s-.464-.103-.464-.11c0-.006-.007-.07.006-.076.013-.006.16-.006.173-.006.1.032.304.032.304.032l-.006-.176.31-.02c-.064-.214-.083-.352-.371-.403l-.903.026.013.125c-.227-.032-.637-.039-.845.035-.121.013-.297.073-.377.073l-.093-.025c-.06-.02-.06-.039-.038-.09.39-.032.45-.06.57-.115.006-.038-.042-.115-.062-.118-.246-.013-.438.006-.505-.007a1.726 1.726 0 01-.247-.09c0-.006-.019-.095-.012-.095.006 0 .16.041.166.041.166.032.451.02.518-.019l.007-.131c-.007-.058-.048-.115-.061-.119a2.907 2.907 0 00-.358-.038c-.15-.02-.128-.093-.128-.166z"/><path stroke="#000" stroke-width=".05" d="M40.538 17.13c.13-.074.22-.096.29-.215h.478l.006.173c.115.054.186.115.3.176.116.054.282.106.4.163l1.028.09c.138.022.336.08.454.15.119.07.196.157.263.269.211.074.422.115.64.15.217.032.49.045.7.055.106.038.106.09.055.144 0 0-.115.157-.432.16-.317 0-.675-.18-.832-.154.006.096.173.295.358.371l-.006.455-.083.073-.093-.06c.074-.11.048-.234.02-.343-.071-.102-.08-.144-.212-.15a1.096 1.096 0 01-.467-.208l-.077.013a.353.353 0 01-.186.172l-.201-.012s-.464-.103-.464-.11c0-.006-.007-.07.006-.076.013-.006.16-.006.173-.006.1.032.304.032.304.032l-.006-.176.31-.02c-.064-.214-.083-.352-.371-.403l-.903.026.013.125c-.227-.032-.637-.039-.845.035-.121.013-.297.073-.377.073l-.093-.025c-.06-.02-.06-.039-.038-.09.39-.032.45-.06.57-.115.006-.038-.042-.115-.062-.118-.246-.013-.438.006-.505-.007a1.726 1.726 0 01-.247-.09c0-.006-.019-.095-.012-.095.006 0 .16.041.166.041.166.032.451.02.518-.019l.007-.131c-.007-.058-.048-.115-.061-.119a2.907 2.907 0 00-.358-.038c-.15-.02-.128-.093-.128-.166z"/><path fill="#fff" d="M42.509 18.195c.137.042.24.058.445.07l.31-.019c-.064-.214-.083-.352-.371-.403l-.903.026.013.125c.275.105.407.16.506.201z"/><path stroke="#000" stroke-width=".05" d="M42.509 18.195c.137.042.24.058.445.07l.31-.019c-.064-.214-.083-.352-.371-.403l-.903.026.013.125c.275.105.407.16.506.201z"/><path fill="#00298C" d="M24.55 19.747l-1.635-6.093 2.496-3.02 3.495 1.996.592 6.455c-1.783.131-2.938.304-4.948.662z"/><path stroke="#000082" stroke-width=".05" d="M24.55 19.747l-1.635-6.093 2.496-3.02 3.495 1.996.592 6.455c-1.783.131-2.938.304-4.948.662z"/><path fill="#FFFA00" d="M18.7 14.672l.6.464-.11.813.768-.32.612.464.086-.749.63-.25-.524-.499.118-.745-.758.272-.554-.458-.125.707-.742.301z"/><path stroke="#FFC700" stroke-width=".05" d="M18.7 14.672l.6.464-.11.813.768-.32.612.464.086-.749.63-.25-.524-.499.118-.745-.758.272-.554-.458-.125.707-.742.301z"/><path fill="#FFC500" d="M18.717 14.675l2.563.416-.637.263-.617-.442s.55 1.162.544 1.155c-.007-.006-.586-.425-.602-.445l.051-.71s-.816 1.03-.816 1.024l.119-.806-.605-.455z"/><path fill="#FFC700" d="M19.434 14.384l.595.506-.464-1.223-.131.717z"/><path fill="#FFC700" d="M20.112 14.144c.006.006-.093.742-.086.742.06-.08.85-1.024.844-1.02-.006 0-.745.284-.758.278z"/><path fill="#FFFA00" d="M43.133 13.635l.15.736-.62.55.8.244.163.745.553-.524.647.214-.07-.717.575-.496-.755-.275-.122-.698-.56.461-.761-.24z"/><path stroke="#FFC700" stroke-width=".05" d="M43.133 13.635l.15.736-.62.55.8.244.163.745.553-.524.647.214-.07-.717.575-.496-.755-.275-.122-.698-.56.461-.761-.24z"/><path fill="#FFC700" d="M43.14 13.648l1.682 1.942-.656-.204-.182-.727s-.346 1.239-.346 1.229c0-.01-.163-.698-.17-.723l.506-.506s-1.299.269-1.296.266c.004-.007.621-.544.621-.544l-.16-.733zM43.888 13.869l.125.761.451-1.228-.576.467z"/><path fill="#FFC700" d="M44.566 14.112c0 .01-.553.506-.547.509.1-.026 1.315-.237 1.309-.24-.003-.003-.755-.256-.762-.269z"/><path fill="#DE1818" d="M22.928 13.68a10.025 10.025 0 012.934-.9c1.012-.143 2.023-.156 3.056-.153 0 0 .135 1.587.135 1.6-.813.003-1.418-.01-2.855.176-1.433.199-2.022.368-2.892.701l-.378-1.424z"/><path stroke="#E61717" stroke-width=".05" d="M22.928 13.68a10.025 10.025 0 012.934-.9c1.012-.143 2.023-.156 3.056-.153 0 0 .135 1.587.135 1.6-.813.003-1.418-.01-2.855.176-1.433.199-2.022.368-2.892.701l-.378-1.424z"/><path fill="#DE1818" d="M23.686 16.49c-.012 0 .448 1.68.448 1.68a24.787 24.787 0 012.59-.5 38.161 38.161 0 012.63-.25l-.148-1.634c-.886-.055-1.894-.055-2.806.064-.912.121-1.802.332-2.714.64z"/><path stroke="#E61717" stroke-width=".05" d="M23.686 16.49c-.012 0 .448 1.68.448 1.68a24.787 24.787 0 012.59-.5 38.161 38.161 0 012.63-.25l-.148-1.634c-.886-.055-1.894-.055-2.806.064-.912.121-1.802.332-2.714.64z"/><path fill="#fff" d="M19.613 21.677h24.774v15.885c-.63 6.185-6.576 10.81-12.01 10.777-5.865.256-12.351-4.544-12.819-10.829l.055-15.833z"/><path stroke="#DE1818" stroke-width=".16" d="M19.613 21.677h24.774v15.885c-.63 6.185-6.576 10.81-12.01 10.777-5.865.256-12.351-4.544-12.819-10.829l.055-15.833z"/><path fill="#DE1818" d="M20.131 22.234h23.741v15.225c-.602 5.93-6.3 10.362-11.507 10.327-5.623.246-11.837-4.356-12.285-10.378l.051-15.174z"/><path stroke="#DE1818" stroke-width=".153" d="M20.131 22.234h23.741v15.225c-.602 5.93-6.3 10.362-11.507 10.327-5.623.246-11.837-4.356-12.285-10.378l.051-15.174z"/><path fill="#fff" d="M29.632 22.314h-4.723v5.075h4.723v-5.075zM39.1 37.568v5.018l2.663.012c1.287-1.926 1.85-3.81 1.968-5.03-.019 0-4.614-.003-4.63 0z"/><path stroke="#fff" stroke-width=".051" d="M39.1 37.568v5.018l2.663.012c1.287-1.926 1.85-3.81 1.968-5.03-.019 0-4.614-.003-4.63 0z"/><path fill="#fff" d="M34.378 42.637v4.816c2.044-.413 3.724-1.434 4.675-2.122l-.01-2.697-4.665.003z"/><path stroke="#fff" stroke-width=".051" d="M34.378 42.637v4.816c2.044-.413 3.724-1.434 4.675-2.122l-.01-2.697-4.665.003z"/><path fill="#fff" d="M24.944 42.637l.01 2.691c1.606 1.136 3.443 1.824 4.668 2.08l-.016-4.771h-4.662z"/><path stroke="#fff" stroke-width=".051" d="M24.944 42.637l.01 2.691c1.606 1.136 3.443 1.824 4.668 2.08l-.016-4.771h-4.662z"/><path fill="#fff" d="M20.214 37.568c.15 1.965 1.034 3.725 1.917 4.957l2.752.057v-5.014h-4.669z"/><path stroke="#fff" stroke-width=".051" d="M20.214 37.568c.15 1.965 1.034 3.725 1.917 4.957l2.752.057v-5.014h-4.669z"/><path fill="#fff" d="M24.912 27.389h-4.723v5.075h4.723v-5.075zM34.355 27.389h-4.723v5.075h4.723v-5.075zM39.075 22.291h-4.723v5.075h4.723v-5.075zM43.798 27.389h-4.723v5.075h4.723v-5.075zM29.632 32.464h-4.723v5.075h4.723v-5.075zM39.075 32.464h-4.723v5.075h4.723v-5.075zM34.355 37.54h-4.723v5.074h4.723V37.54z"/><path fill="#CCA300" d="M36.666 16.317c-.016.019-.052-.224-.064-.266-.016-.064-.048-.179-.09-.33.118.186.18.41.154.596z"/><path stroke="#CCA300" stroke-width=".05" d="M36.666 16.317c-.016.019-.052-.224-.064-.266-.016-.064-.048-.179-.09-.33.118.186.18.41.154.596z"/><path fill="#CCC" d="M32 1.6c16.64 0 30.4 13.76 30.4 30.4S48.64 62.4 32 62.4 1.6 48.64 1.6 32 15.36 1.6 32 1.6zM32 0C14.4 0 0 14.4 0 32s14.4 32 32 32 32-14.4 32-32S49.6 0 32 0z"/></svg>