
<svg xmlns="http://www.w3.org/2000/svg" fill="none" viewBox="0 0 64 64" aria-hidden="true"><path fill="#fff" stroke="#B6B6B6" stroke-width=".15" d="M32 62.72c16.966 0 30.72-13.754 30.72-30.72S48.966 1.28 32 1.28 1.28 15.034 1.28 32 15.034 62.72 32 62.72z"/><path fill="#0038B8" d="M49.862 7.04H14.138a30.856 30.856 0 00-8.714 9.6h53.152a30.817 30.817 0 00-8.714-9.6zM58.576 47.36H5.424a30.788 30.788 0 008.717 9.6h35.725a30.846 30.846 0 008.71-9.6zM39.68 32l3.84-6.65h-7.68L32 18.698l-3.84 6.652h-7.68L24.32 32l-3.84 6.65h7.68L32 45.3l3.84-6.65h7.68L39.68 32zm.182-4.54l-1.401 2.428-1.402-2.426h2.803v-.003zM37.242 32l-2.621 4.54h-5.242L26.76 32l2.62-4.54h5.242L37.24 32zM32 22.922l1.402 2.425h-2.804L32 22.922zm-7.866 4.537h2.804l-1.399 2.429-1.405-2.429zm0 9.082l1.402-2.429 1.402 2.426h-2.804v.003zM32 41.078l-1.402-2.425h2.804L32 41.078zm6.46-6.966l1.402 2.426H37.06l1.402-2.426z"/><path fill="#CCC" d="M32 1.6c16.64 0 30.4 13.76 30.4 30.4S48.64 62.4 32 62.4 1.6 48.64 1.6 32 15.36 1.6 32 1.6zM32 0C14.4 0 0 14.4 0 32s14.4 32 32 32 32-14.4 32-32S49.6 0 32 0z"/></svg>