<svg xmlns="http://www.w3.org/2000/svg" viewBox="-22 -22 64 64" aria-hidden="true"><circle cx="10" cy="10" r="28.8" fill="#fff" stroke="#b6b6b6" stroke-miterlimit="10" stroke-width=".15"/><path fill="#ff9932" d="M10-18.8c-12.534 0-23.169 8.022-27.126 19.2h54.252C33.169-10.778 22.534-18.8 10-18.8z"/><path fill="#128807" d="M37.126 19.6h-54.252C-13.169 30.781-2.534 38.8 10 38.8s23.169-8.022 27.126-19.2z"/><g fill="navy"><path d="M10 1.072c-4.932 0-8.928 3.996-8.928 8.928S5.068 18.928 10 18.928s8.928-3.996 8.928-8.928S14.932 1.072 10 1.072zm-.564 16.74c.003-.24-.156-.456-.399-.486a.478.478 0 00-.528.393c-.183-.036-.357-.099-.537-.147l1.461-4.35c-.024-.399.165-1.473.567-3.222-.525 1.713-.9 2.742-1.122 3.078l-.906 4.497c-.18-.048-.36-.108-.54-.168a.476.476 0 00-.258-.579c-.231-.096-.48.015-.597.228a8.56 8.56 0 01-.492-.267L8.62 12.97c.078-.396.54-1.386 1.38-2.97-.951 1.521-1.578 2.412-1.881 2.685l-2.04 4.104c-.159-.093-.333-.162-.486-.264a.477.477 0 00-.093-.657.471.471 0 00-.627.063c-.144-.123-.306-.228-.438-.36l3.462-3.057c.18-.366.882-1.2 2.103-2.514-1.314 1.221-2.148 1.923-2.511 2.106l-3.057 3.462c-.132-.132-.237-.294-.36-.438.174-.168.213-.432.063-.627a.478.478 0 00-.66-.093c-.105-.153-.174-.324-.264-.486l4.104-2.04C7.588 11.578 8.479 10.951 10 10c-1.584.84-2.574 1.302-2.97 1.383l-3.819 2.535a7.793 7.793 0 01-.267-.492.471.471 0 00.228-.597.47.47 0 00-.579-.258 9.464 9.464 0 01-.168-.54l4.497-.906C7.258 10.9 8.287 10.525 10 10c-1.749.402-2.823.591-3.228.567l-4.35 1.461c-.048-.18-.111-.351-.147-.537a.474.474 0 00.393-.528c-.033-.243-.249-.399-.486-.399-.009-.189-.054-.372-.054-.564s.042-.375.057-.564c.24.003.453-.156.483-.399a.478.478 0 00-.393-.528c.036-.183.099-.357.147-.537l4.35 1.461c.405-.024 1.479.165 3.228.567-1.713-.525-2.742-.9-3.078-1.122l-4.497-.909c.048-.18.108-.36.168-.54a.476.476 0 00.579-.258c.096-.231-.015-.48-.228-.597.081-.171.174-.33.264-.492l3.819 2.535C7.426 8.698 8.416 9.16 10 10c-1.521-.951-2.412-1.578-2.685-1.881L3.211 6.076c.093-.159.162-.33.264-.483.21.15.501.111.657-.093a.471.471 0 00-.063-.627c.123-.144.228-.306.36-.438l3.057 3.462c.366.18 1.2.882 2.514 2.103-1.221-1.314-1.923-2.148-2.106-2.511L4.432 4.432c.135-.132.297-.234.438-.36a.472.472 0 00.63.063.479.479 0 00.096-.66c.15-.102.324-.171.483-.264l2.04 4.104c.303.273.93 1.164 1.881 2.685-.84-1.584-1.302-2.574-1.383-2.97L6.082 3.208a9.7 9.7 0 01.492-.267.472.472 0 00.597.228.472.472 0 00.261-.579c.177-.057.354-.114.54-.165l.906 4.497C9.1 7.258 9.475 8.287 10 10c-.402-1.749-.591-2.823-.567-3.228L7.972 2.425c.18-.048.351-.111.537-.147.045.252.27.426.528.393a.47.47 0 00.399-.486c.189-.012.372-.057.564-.057s.375.042.564.057c-.003.24.156.456.399.486a.478.478 0 00.528-.393c.183.036.357.099.537.147l-1.461 4.35c.024.402-.165 1.476-.567 3.225.525-1.713.9-2.742 1.122-3.078l.906-4.497c.18.048.36.108.54.168a.476.476 0 00.258.579c.231.096.48-.015.597-.228.171.084.33.177.492.267L11.383 7.03C11.302 7.426 10.84 8.416 10 10c.951-1.521 1.578-2.412 1.881-2.685l2.04-4.104c.159.093.333.162.486.264a.481.481 0 00.093.66c.195.15.462.108.627-.063.144.123.306.228.438.36l-3.462 3.057c-.18.363-.882 1.197-2.103 2.511 1.314-1.221 2.148-1.923 2.511-2.106l3.057-3.462c.132.132.237.294.36.438-.174.168-.213.432-.063.627.159.204.45.243.657.093.105.153.174.324.264.486l-4.104 2.04c-.27.306-1.161.933-2.682 1.884 1.584-.84 2.574-1.302 2.97-1.383l3.819-2.535c.096.162.186.324.267.492a.471.471 0 00-.228.597.468.468 0 00.576.258c.06.177.117.354.168.54l-4.494.906c-.336.225-1.365.6-3.078 1.125 1.749-.402 2.823-.591 3.228-.567l4.347-1.461c.048.18.111.351.147.537a.474.474 0 00-.393.528c.033.243.249.399.486.399.015.189.06.372.06.564s-.042.375-.057.564c-.24-.003-.456.156-.486.399a.478.478 0 00.393.528c-.036.183-.099.357-.147.537l-4.347-1.461c-.408.024-1.482-.165-3.231-.567 1.713.525 2.742.9 3.078 1.122l4.497.906c-.048.18-.108.36-.168.54-.234-.066-.483.033-.576.258-.096.231.015.48.228.597a8.56 8.56 0 01-.267.492l-3.819-2.535c-.399-.078-1.389-.54-2.973-1.38 1.521.951 2.412 1.578 2.685 1.881l4.104 2.04c-.093.159-.162.333-.264.486a.477.477 0 00-.657.093.471.471 0 00.063.627c-.123.144-.228.306-.36.438l-3.057-3.462c-.366-.18-1.2-.882-2.514-2.103 1.221 1.314 1.923 2.148 2.106 2.511l3.462 3.057c-.132.132-.294.237-.438.36-.168-.174-.432-.213-.627-.063a.478.478 0 00-.093.657c-.153.105-.324.174-.486.264l-2.04-4.104c-.306-.27-.933-1.161-1.884-2.682.84 1.584 1.302 2.574 1.383 2.97l2.535 3.819a7.792 7.792 0 01-.492.267.471.471 0 00-.597-.228.47.47 0 00-.258.579c-.177.06-.354.117-.54.168l-.906-4.497c-.225-.336-.6-1.365-1.125-3.078.402 1.749.591 2.823.567 3.228l1.461 4.35c-.18.048-.351.111-.537.147a.474.474 0 00-.528-.393c-.243.033-.399.249-.399.486-.189.015-.372.057-.564.057s-.375-.048-.564-.063z"/><path d="M10 10c-.063 1.791-.162 2.88-.288 3.264L10 17.872l.288-4.608c-.126-.384-.225-1.473-.288-3.264zM2.128 10l4.608.288C7.12 10.162 8.209 10.063 10 10c-1.791-.063-2.88-.162-3.264-.288L2.128 10zM10 2.128l-.288 4.608c.126.384.225 1.473.288 3.264.063-1.791.162-2.88.288-3.264L10 2.128zM17.872 10l-4.608-.288c-.384.126-1.473.225-3.264.288 1.791.063 2.88.162 3.264.288L17.872 10z"/></g><path fill="#ccc" d="M10-18.5c15.6 0 28.5 12.9 28.5 28.5S25.6 38.5 10 38.5-18.5 25.6-18.5 10-5.6-18.5 10-18.5m0-1.5C-6.5-20-20-6.5-20 10s13.5 30 30 30 30-13.5 30-30-13.5-30-30-30z"/></svg>