
<svg xmlns="http://www.w3.org/2000/svg" fill="none" viewBox="0 0 64 64" aria-hidden="true"><path fill="#fff" stroke="#B6B6B6" stroke-miterlimit="10" stroke-width=".15" d="M32 62.72c16.966 0 30.72-13.754 30.72-30.72S48.966 1.28 32 1.28 1.28 15.034 1.28 32 15.034 62.72 32 62.72z"/><path fill="#003897" d="M61.933 25.174C58.826 11.498 46.618 1.28 32 1.28c-.58 0-1.146.054-1.718.086v23.808h31.65zM16.63 5.43C9.36 9.645 3.984 16.746 2.067 25.174h14.56L16.63 5.43zM61.933 38.826H30.282v23.808c.572.032 1.139.086 1.718.086 14.618 0 26.826-10.218 29.933-23.894zM2.067 38.826c1.917 8.428 7.29 15.53 14.56 19.744V38.826H2.067z"/><path fill="#D72828" d="M62.522 35.414c.121-1.123.198-2.259.198-3.414 0-1.155-.077-2.291-.198-3.414H26.87V1.744c-2.374.4-4.668 1.037-6.825 1.952v24.893H1.478A31.55 31.55 0 001.28 32c0 1.155.077 2.291.198 3.414h18.56v24.893c2.157.912 4.452 1.552 6.826 1.952V35.418c.003-.004 35.658-.004 35.658-.004z"/><path fill="#CCC" d="M32 1.6c16.64 0 30.4 13.76 30.4 30.4S48.64 62.4 32 62.4 1.6 48.64 1.6 32 15.36 1.6 32 1.6zM32 0C14.4 0 0 14.4 0 32s14.4 32 32 32 32-14.4 32-32S49.6 0 32 0z"/></svg>