<svg xmlns="http://www.w3.org/2000/svg" viewBox="-22 -22 64 64" aria-hidden="true"><circle cx="10" cy="10" r="28.8" fill="#fff" stroke="#b6b6b6" stroke-width=".15"/><path fill="none" d="M28.582 31.984H-8.582a28.586 28.586 0 004.77 3.285h27.627a28.81 28.81 0 004.767-3.285zM38.722 11.539h-57.444a29.49 29.49 0 00.357 3.285h56.727c.186-1.077.303-2.172.36-3.285zM34.447 25.168h-48.894a28.377 28.377 0 002.349 3.285h44.199a28.719 28.719 0 002.346-3.285zM28.696 1.192h8.721a28.351 28.351 0 00-1.305-3.285h-7.413l-.003 3.285zM37.558 18.355h-55.116c.342 1.128.756 2.22 1.23 3.285h52.659c.471-1.065.888-2.16 1.227-3.285zM28.696-5.621h5.478a28.587 28.587 0 00-2.484-3.285h-2.991v3.285h-.003zM28.696 8.011h10.002a28.727 28.727 0 00-.402-3.285h-9.6v3.285z"/><path fill="#dc241f" d="M31.69-8.906a29.15 29.15 0 00-2.991-2.973v2.973h2.991zM28.696-2.093h7.413a28.298 28.298 0 00-1.938-3.528h-5.478l.003 3.528zM28.696 4.723h9.6a29.337 29.337 0 00-.879-3.531h-8.721v3.531zM38.8 10c0-.672-.054-1.332-.102-1.989H28.696v.33h-47.412c-.033.552-.084 1.101-.084 1.659 0 .519.051 1.026.078 1.539h57.444c.027-.513.078-1.02.078-1.539zM38.365 14.824h-56.73c.201 1.2.459 2.382.804 3.528h55.116c.351-1.143.606-2.328.81-3.528zM36.328 21.64h-52.656a28.546 28.546 0 001.881 3.528H34.45a28.129 28.129 0 001.878-3.528zM32.098 28.456h-44.196a29.146 29.146 0 003.516 3.528h37.164a28.72 28.72 0 003.516-3.528zM-3.815 35.272C.289 37.519 4.996 38.8 10 38.8s9.711-1.281 13.815-3.528h-27.63z"/><path fill="#0035ad" d="M10-18.8c-15.345 0-27.852 12.012-28.716 27.141h47.412v-20.22C23.665-16.184 17.143-18.8 10-18.8z"/><path fill="#ffd100" d="M7.426 2.362c-1.347.819-2.91 1.314-4.596 1.314-4.92 0-8.904-3.99-8.904-8.904s3.984-8.907 8.904-8.907c1.689 0 3.252.495 4.596 1.314-1.797-1.59-4.131-2.586-6.717-2.586-5.622 0-10.179 4.557-10.179 10.179S-4.913 4.951.709 4.951c2.586-.003 4.923-.999 6.717-2.589z"/><path fill="#ffd100" d="M10.129-8.537l-2.922-4.332L8.77-7.883l-4.515-2.634 3.573 3.816-5.211-.414 4.878 1.887-4.878 1.884 5.211-.414L4.255.058 8.77-2.576 7.207 2.41l2.922-4.332.21 1.437.549 3.738.753-5.175 2.925 4.332L13-2.576 17.518.058l-3.576-3.816 5.214.414-4.875-1.884 4.875-1.887-5.214.414 3.576-3.816L13-7.883l1.566-4.986-2.925 4.332-.753-5.175-.549 3.738z"/><path fill="#ccc" d="M10-18.5c15.6 0 28.5 12.9 28.5 28.5S25.6 38.5 10 38.5-18.5 25.6-18.5 10-5.6-18.5 10-18.5m0-1.5C-6.5-20-20-6.5-20 10s13.5 30 30 30 30-13.5 30-30-13.5-30-30-30z"/></svg>