
<svg xmlns="http://www.w3.org/2000/svg" fill="none" viewBox="0 0 64 64" aria-hidden="true"><path fill="#EE2E2F" stroke="#B6B6B6" stroke-width=".15" d="M32 62.72c16.966 0 30.72-13.754 30.72-30.72S48.966 1.28 32 1.28 1.28 15.034 1.28 32 15.034 62.72 32 62.72z"/><path fill="#fff" d="M16.502 5.507V24.32H2.288a31.069 31.069 0 00-.742 3.84h18.793V3.584c-1.331.55-2.605 1.2-3.837 1.923zM28.022 35.84v26.595c1.261.163 2.538.272 3.84.279V39.68h29.853c.323-1.254.576-2.531.74-3.84H28.021zM1.546 35.84c.163 1.309.419 2.586.739 3.84h14.214v18.813a30.291 30.291 0 003.84 1.923V35.84H1.546zM61.712 24.32h-29.85V1.286c-1.305.007-2.579.116-3.84.279V28.16h34.436a31.075 31.075 0 00-.746-3.84z"/><path fill="#213065" d="M62.454 28.16H28.022V1.565a30.644 30.644 0 00-7.68 2.019V28.16H1.546c-.157 1.26-.266 2.538-.266 3.84s.109 2.58.266 3.84h18.793v24.576c2.42.992 4.999 1.67 7.68 2.02V35.84h34.435c.16-1.26.27-2.538.27-3.84s-.113-2.58-.27-3.84z"/><path fill="#CCC" d="M32 1.6c16.64 0 30.4 13.76 30.4 30.4S48.64 62.4 32 62.4 1.6 48.64 1.6 32 15.36 1.6 32 1.6zM32 0C14.4 0 0 14.4 0 32s14.4 32 32 32 32-14.4 32-32S49.6 0 32 0z"/></svg>