
<svg xmlns="http://www.w3.org/2000/svg" fill="none" viewBox="0 0 64 64" aria-hidden="true"><path fill="#fff" stroke="#B6B6B6" stroke-miterlimit="10" stroke-width=".15" d="M32 62.72c16.966 0 30.72-13.754 30.72-30.72S48.966 1.28 32 1.28 1.28 15.034 1.28 32 15.034 62.72 32 62.72z"/><path fill="#0038A8" d="M62.72 32C62.72 15.104 48.896 1.28 32 1.28c-8.294 0-15.667 3.38-21.197 8.602L49.203 32H62.72z"/><path fill="#CE1126" d="M62.72 32H49.203l-38.4 22.118C16.333 59.341 23.706 62.72 32 62.72c16.896 0 30.72-13.824 30.72-30.72z"/><path fill="#FCD116" d="M13.568 26.163l-1.229-4.3.615-.922.921 5.222h-.307zm.922 0l-.615-5.837 1.229-1.536 1.229 1.536-.615 5.837H14.49zm2.457 0l1.229-4.3-.922-.922-.921 5.222h.614z"/><path fill="#FCD116" d="M21.248 32c0 3.38-2.765 6.144-6.144 6.144-3.38 0-6.144-2.765-6.144-6.144 0-3.38 2.765-6.144 6.144-6.144 3.38 0 6.144 2.765 6.144 6.144z"/><path fill="#FCD116" d="M16.947 37.837l.922 4.3-.615.922-.921-5.222h.614zm-1.229 0l.615 5.837-1.229 1.536-1.229-1.536.615-5.837h1.228zm-2.15 0l-1.229 4.3.615.922.921-5.222h-.307zM20.94 30.464l4.302-.922.921.615-5.222.614v-.307zm0 .922l5.838-.615L28.006 32l-1.536 1.229-5.836-.615v-1.228h.307zm0 2.15l4.302 1.229.921-.615-5.222-.921v.307z"/><path fill="#FCD116" d="M15.104 38.144c-3.38 0-6.144-2.765-6.144-6.144 0-3.38 2.765-6.144 6.144-6.144 3.38 0 6.144 2.765 6.144 6.144 0 3.38-2.765 6.144-6.144 6.144z"/><path fill="#FCD116" d="M9.267 33.536l-4.3.922-.615-.615 5.222-.921v.614h-.307zm0-.922l-5.837.615L2.202 32l1.536-1.229 5.836.615v1.228h-.307zm0-2.15l-3.993-1.229-.922.922 5.222.921v-.614h-.307zM9.882 29.235l-3.687-2.457v-1.23l4.301 3.073-.614.614zm.614-.921l-4.3-3.687v-1.843h1.842l3.687 4.608-1.229.922zm1.843-1.536L9.882 23.09l-.922-.307 3.072 4.3.307-.306z"/><path fill="#FCD116" d="M19.405 27.7c2.457 2.457 2.457 6.143 0 8.6-2.458 2.458-6.144 2.458-8.602 0-2.457-2.457-2.457-6.143 0-8.6 2.458-2.458 6.451-2.458 8.602 0z"/><path fill="#FCD116" d="M20.326 34.765l3.687 2.15v1.229l-4.301-3.072.614-.307zm-.614.921l4.608 3.687v1.843h-1.843l-3.687-4.608.922-.922zm-1.536 1.536l2.15 3.687h1.23l-3.073-4.301-.307.614zM18.176 26.778l2.15-3.687h1.23l-3.073 4.301-.307-.614zm.614.614l3.687-4.608h1.843v1.843l-4.608 3.687-.922-.922zm1.536 1.536l3.687-2.15v-1.23l-4.301 3.073.614.307z"/><path fill="#FCD116" d="M19.405 36.3c-2.458 2.458-6.144 2.458-8.602 0-2.457-2.457-2.457-6.143 0-8.6 2.458-2.458 6.144-2.458 8.602 0 2.457 2.457 2.457 6.143 0 8.6z"/><path fill="#FCD116" d="M12.34 37.222l-2.151 3.687H8.96l3.072-4.301.307.614zm-.922-.614l-3.38 4.608H6.195v-1.843l4.301-3.687.922.922zm-1.536-1.536l-3.687 2.15v1.23l4.301-3.073-.614-.307zM36.3 34.15L38.145 32l-1.843-2.15 2.765.921 1.536-2.457v2.764l2.764.922-2.764.922v2.764l-1.536-2.457-2.765.921z"/><path fill="#CCC" d="M32 1.6c16.64 0 30.4 13.76 30.4 30.4S48.64 62.4 32 62.4 1.6 48.64 1.6 32 15.36 1.6 32 1.6zM32 0C14.4 0 0 14.4 0 32s14.4 32 32 32 32-14.4 32-32S49.6 0 32 0z"/></svg>