
<svg xmlns="http://www.w3.org/2000/svg" fill="none" viewBox="0 0 64 64" aria-hidden="true"><path fill="#002B7F" d="M1.28 31.994c0 11.366 6.144 21.196 15.36 26.726V5.267c-9.216 5.53-15.36 15.36-15.36 26.727z"/><path fill="#FCD116" d="M47.36 5.267C42.752 2.81 37.53 1.274 32 1.274c-5.53 0-10.752 1.536-15.36 3.993v53.146c4.608 2.765 9.83 3.993 15.36 3.993 5.53 0 10.752-1.536 15.36-3.993V5.267z"/><path fill="#CE1126" d="M62.72 31.994c0-11.367-6.144-21.197-15.36-26.727v53.146c9.216-5.223 15.36-15.053 15.36-26.42z"/><path fill="#CCC" d="M32 1.6c16.64 0 30.4 13.76 30.4 30.4S48.64 62.4 32 62.4 1.6 48.64 1.6 32 15.36 1.6 32 1.6zM32 0C14.4 0 0 14.4 0 32s14.4 32 32 32 32-14.4 32-32S49.6 0 32 0z"/></svg>