
<svg xmlns="http://www.w3.org/2000/svg" fill="none" viewBox="0 0 64 64" aria-hidden="true"><path fill="#005B99" d="M32 62.72c16.966 0 30.72-13.754 30.72-30.72S48.966 1.28 32 1.28 1.28 15.034 1.28 32 15.034 62.72 32 62.72z"/><path fill="#FCD116" d="M62.106 25.856H28.56V1.472a30.574 30.574 0 00-12.288 4.134v20.25H1.894A30.824 30.824 0 001.28 32c0 2.106.211 4.16.614 6.144h14.378V58.39a30.525 30.525 0 0012.288 4.135V38.14h33.546c.403-1.981.614-4.035.614-6.141s-.211-4.16-.614-6.144z"/><path fill="#CCC" d="M32 1.6c16.64 0 30.4 13.76 30.4 30.4S48.64 62.4 32 62.4 1.6 48.64 1.6 32 15.36 1.6 32 1.6zM32 0C14.4 0 0 14.4 0 32s14.4 32 32 32 32-14.4 32-32S49.6 0 32 0z"/></svg>