<svg xmlns="http://www.w3.org/2000/svg" viewBox="-22 -22 64 64" aria-hidden="true"><circle cx="10" cy="10" r="28.8" fill="#fff" stroke="#b6b6b6" stroke-width=".15"/><path fill="#ed2939" d="M10-18.8C-5.906-18.8-18.8-5.906-18.8 10h57.6c0-15.906-12.894-28.8-28.8-28.8"/><path fill="#fff" d="M-3.233 2.836A10.193 10.193 0 01-5.45-.482c-.516-1.239-.786-2.58-.786-3.918s.267-2.679.78-3.918a10.297 10.297 0 012.22-3.318 10.229 10.229 0 016.807-2.985 10.878 10.878 0 00-3.564-.609 10.852 10.852 0 00-7.662 3.171A10.827 10.827 0 00-4.142 5.602a10.773 10.773 0 007.71.219 10.208 10.208 0 01-3.483-.765 10.249 10.249 0 01-3.318-2.22"/><path fill="#fff" d="M-.125-5.267l1.47 1.128-.567-1.818 1.476-1.125-1.821.006L-.125-8.9l-.561 1.824-1.821-.003 1.476 1.122-.567 1.818zM11.416-8.9l-.558 1.824-1.821-.006 1.476 1.125-.564 1.818 1.467-1.128 1.473 1.128-.567-1.818 1.476-1.125-1.821.006zM4.18-8.423l1.47-1.128 1.473 1.128-.567-1.821 1.473-1.122-1.818.006-.561-1.824-.558 1.824-1.824-.003 1.479 1.119zM4.414-.227l-1.821.006-.561-1.824-.561 1.824-1.818-.006L1.129.895.562 2.716l1.473-1.128 1.467 1.128L2.938.895zM9.817-.221l-.561-1.824-.558 1.824-1.824-.003L8.353.895l-.567 1.821 1.47-1.128 1.473 1.128-.567-1.821 1.473-1.122z"/><path fill="#ccc" d="M10-18.5c15.6 0 28.5 12.9 28.5 28.5S25.6 38.5 10 38.5-18.5 25.6-18.5 10-5.6-18.5 10-18.5m0-1.5C-6.5-20-20-6.5-20 10s13.5 30 30 30 30-13.5 30-30-13.5-30-30-30z"/></svg>