
<svg xmlns="http://www.w3.org/2000/svg" fill="none" viewBox="0 0 64 64" aria-hidden="true"><path fill="#fff" stroke="#B6B6B6" stroke-miterlimit="10" stroke-width=".15" d="M32 62.72c16.966 0 30.72-13.754 30.72-30.72S48.966 1.28 32 1.28 1.28 15.034 1.28 32 15.034 62.72 32 62.72z"/><path fill="#DE1018" d="M54.896 52.48H9.104C14.73 58.765 22.902 62.72 32 62.72c9.1 0 17.27-3.955 22.896-10.24zM32 1.28c-9.098 0-17.27 3.955-22.896 10.24h45.792C49.27 5.235 41.098 1.28 32 1.28z"/><path fill="#00247D" d="M62.72 32c0-3.59-.618-7.037-1.75-10.24H3.03A30.655 30.655 0 001.28 32c0 3.59.618 7.037 1.75 10.24h57.94A30.655 30.655 0 0062.72 32z"/><path fill="#CCC" d="M32 1.6c16.64 0 30.4 13.76 30.4 30.4S48.64 62.4 32 62.4 1.6 48.64 1.6 32 15.36 1.6 32 1.6zM32 0C14.4 0 0 14.4 0 32s14.4 32 32 32 32-14.4 32-32S49.6 0 32 0z"/></svg>