<svg xmlns="http://www.w3.org/2000/svg" viewBox="-22 -22 64 64" aria-hidden="true"><circle cx="10" cy="10" r="28.8" fill="#fff" stroke="#b6b6b6" stroke-miterlimit="10" stroke-width=".15"/><path fill="#bb133e" d="M37.999 16.648h-55.998c.36 1.524.822 3.009 1.41 4.428h53.172c.597-1.419 1.053-2.904 1.416-4.428zM34.243 25.51h-48.486a28.821 28.821 0 003.492 4.428h41.505a29.173 29.173 0 003.489-4.428zM-5.3 34.372C-.863 37.162 4.372 38.8 10 38.8s10.863-1.638 15.3-4.428H-5.3zM25.3-14.372l-.324-.195v.195h.324zM24.976-5.51h9.267a28.82 28.82 0 00-3.492-4.428h-5.778v4.428h.003z"/><path fill="#fff" d="M-11.426-1.955l-.399 1.224h-1.29l1.044.756-.399 1.227 1.044-.756 1.044.756-.399-1.224 1.041-.759h-1.29l-.396-1.224zm0 1.773zM-11.03 5.491l-.396-1.224-.399 1.224h-1.29l1.044.756-.399 1.227 1.044-.756 1.041.756-.396-1.227 1.041-.756zM-11.426-8.177l-.399 1.224h-1.29l1.044.759-.399 1.227 1.044-.759 1.041.759-.396-1.227 1.041-.759h-1.29zM-7.799 1.156l-.396 1.224h-1.29l1.041.756-.396 1.227 1.041-.756 1.044.756-.399-1.227 1.044-.756H-7.4zM-7.4 8.599l-.399-1.224-.396 1.224h-1.29l1.041.759-.396 1.227 1.041-.759 1.044.759-.399-1.227 1.044-.759zM-15.056 1.156l-.396 1.224h-1.293l1.044.756-.399 1.227 1.044-.756 1.044.756-.399-1.227 1.044-.756h-1.293zM-14.66 8.599l-.396-1.224-.396 1.224h-1.293l1.044.759-.399 1.227 1.044-.759 1.044.759-.399-1.227 1.044-.759zM19.543-16.283l1.044.756-.399 1.227 1.044-.756 1.044.756-.396-1.227.573-.414c-.237-.114-.468-.234-.708-.342h-.108l-.021-.063a26.01 26.01 0 00-.663-.288l-.114.351h-1.296zM-7.799-5.066l-.396 1.224h-1.29l1.041.759-.396 1.227 1.041-.759 1.044.759-.399-1.227 1.044-.759H-7.4zM-1.583-14.3l1.044-.756 1.041.756-.399-1.224 1.044-.756h-1.29l-.189-.579c-.156.06-.318.111-.477.177l-.129.399h-.801c-.102.045-.195.099-.294.141l.846.615-.396 1.227zM-15.056-2.615l1.044.756-.399-1.224 1.044-.756h-1.293l-.207-.642c-.345.594-.669 1.2-.972 1.818l-.261.807 1.044-.759zM6.718-11.285l-.399 1.224h-1.29l1.044.756-.399 1.227 1.044-.756 1.041.756-.396-1.227 1.041-.756h-1.29zM6.718-5.066l-.399 1.224h-1.29l1.044.759-.399 1.227 1.044-.759 1.041.759-.396-1.227 1.041-.759h-1.29zM10.345-14.396l-.396 1.224h-1.29l1.041.756-.396 1.227 1.041-.756 1.044.756-.399-1.227 1.044-.756h-1.29zM6.718 1.156L6.319 2.38h-1.29l1.044.756-.399 1.227 1.044-.756 1.041.756-.396-1.227 1.041-.756h-1.29zM6.718-17.507l-.399 1.224h-1.29l1.044.759-.399 1.224 1.044-.756 1.041.756-.396-1.224 1.041-.759h-1.29zM13.975 1.156l-.399 1.224h-1.29l1.044.756-.399 1.227 1.044-.756 1.041.756-.396-1.227 1.041-.756h-1.29zM7.114 8.599l-.396-1.224-.399 1.224h-1.29l1.044.759-.399 1.227 1.044-.759 1.041.759-.396-1.227 1.041-.759zM14.371 8.599l-.396-1.224-.399 1.224h-1.29l1.044.759-.399 1.227 1.044-.759 1.041.759-.396-1.227 1.041-.759zM21.628 8.599l-.396-1.224-.396 1.224h-1.293l1.044.759-.399 1.227 1.044-.759 1.044.759-.399-1.227 1.044-.759zM17.602-14.396l-.396 1.224h-1.29l1.041.756-.396 1.227 1.041-.756 1.044.756-.399-1.227 1.044-.756h-1.29zM10.345-1.955L9.949-.731h-1.29L9.7.028l-.396 1.224 1.044-.756 1.044.756L10.99.028l1.044-.756h-1.287l-.402-1.227zm0 1.773zM17.602-1.955l-.396 1.224h-1.29l1.041.759-.396 1.224 1.041-.756 1.044.756-.399-1.224 1.044-.759h-1.29zM10.744 5.491l-.399-1.224-.396 1.224h-1.29l1.041.756-.396 1.227 1.041-.756 1.044.756-.399-1.227 1.044-.756zM21.232-5.066l-.396 1.224h-1.293l1.044.759-.399 1.227 1.044-.759 1.044.759-.399-1.227 1.044-.759h-1.293zM21.232 1.156l-.396 1.224h-1.293l1.044.756-.399 1.227 1.044-.756 1.044.756-.399-1.227 1.044-.756h-1.293zM21.232-11.285l-.396 1.224h-1.293l1.044.756-.399 1.227 1.044-.756 1.044.756-.399-1.227 1.044-.756h-1.293zM10.345-8.177l-.396 1.224h-1.29l1.041.759-.396 1.227 1.041-.759 1.044.759-.399-1.227 1.044-.759h-1.29zM3.088-8.177l-.396 1.224H1.399l1.044.759-.399 1.227 1.044-.759 1.044.759-.399-1.227 1.044-.759H3.484zM-.542 1.156L-.938 2.38h-1.29l1.041.756-.396 1.227 1.041-.756 1.044.756-.399-1.227 1.044-.756h-1.29zM-.143 8.599l-.399-1.224-.396 1.224h-1.29l1.041.759-.396 1.227 1.041-.759 1.044.759-.399-1.227 1.044-.759zM-.542-5.066l-.396 1.224h-1.29l1.041.759-.396 1.227 1.041-.759 1.044.759-.399-1.227 1.044-.759h-1.29zM-4.169-14.396l-.399 1.224h-1.29l1.044.756-.399 1.227 1.044-.756 1.041.756-.396-1.227 1.041-.756h-1.29zM-7.799-11.285l-.396 1.224h-1.29l1.041.756-.396 1.227 1.041-.756 1.044.756-.399-1.227 1.044-.756H-7.4zM-4.169-1.955l-.399 1.224h-1.29l1.044.759-.399 1.224 1.044-.756 1.041.756-.396-1.224 1.041-.759h-1.29zM-3.773 5.491l-.396-1.224-.399 1.224h-1.29l1.044.756-.399 1.227 1.044-.756 1.041.756-.396-1.227 1.041-.756zM13.975-5.066l-.399 1.224h-1.29l1.044.759-.399 1.227 1.044-.759 1.041.759-.396-1.227 1.041-.759h-1.29zM-4.169-8.177l-.399 1.224h-1.29l1.044.759-.399 1.227 1.044-.759 1.041.759-.396-1.227 1.041-.759h-1.29zM-.542-11.285l-.396 1.224h-1.29l1.041.756-.396 1.227 1.041-.756 1.044.756-.399-1.227 1.044-.756h-1.29zM3.484 5.491l-.396-1.224-.396 1.224H1.399l1.044.756-.399 1.227 1.044-.756 1.044.756-.399-1.227 1.044-.756zM18.001 5.491l-.399-1.224-.396 1.224h-1.29l1.041.756-.396 1.227 1.041-.756 1.044.756-.399-1.227 1.044-.756zM3.088-14.396l-.396 1.224H1.399l1.044.756-.399 1.227 1.044-.756 1.044.756-.399-1.227 1.044-.756H3.484zM3.088-1.955L2.692-.731H1.399l1.044.759-.399 1.224L3.088.496l1.044.756L3.733.028l1.044-.759H3.484zM17.602-8.177l-.396 1.224h-1.29l1.041.759-.396 1.227 1.041-.759 1.044.759-.399-1.227 1.044-.759h-1.29zM13.975-11.285l-.399 1.224h-1.29l1.044.756-.399 1.227 1.044-.756 1.041.756-.396-1.227 1.041-.756h-1.29zM13.975-17.507l-.399 1.224h-1.29l1.044.759-.399 1.224 1.044-.756 1.041.756-.396-1.224 1.041-.759h-1.29z"/><path fill="#002664" d="M10.345-.182zM-11.426-.182zM24.976 7.786v-22.353a28.925 28.925 0 00-2.529-1.374l-.573.414.399 1.227-1.041-.756-1.044.756.396-1.227-1.044-.756h1.29l.114-.351A28.675 28.675 0 0010-18.8c-3.645 0-7.119.705-10.332 1.941l.186.576h1.29l-1.041.759.399 1.224-1.044-.756-1.041.756.396-1.227-.846-.615A28.898 28.898 0 00-14.867-4.484l.207.642h1.29l-1.041.759.396 1.227-1.041-.759-1.044.759.261-.807A28.638 28.638 0 00-18.8 10c0 .75.054 1.482.111 2.214h43.665V7.786zm-38.988 2.799l-1.044-.759-1.044.759.396-1.227-1.041-.759h1.29l.396-1.224.399 1.227h1.29l-1.041.756.399 1.227zm-.399-7.449l.396 1.227-1.041-.756-1.044.756.396-1.227-1.041-.756h1.29l.396-1.224.399 1.227h1.29l-1.041.753zm4.026 4.338l-1.041-.756-1.044.756.396-1.227-1.041-.756h1.287l.399-1.224.399 1.227h1.29l-1.041.753.396 1.227zm-.396-7.446l.396 1.227-1.041-.759-1.044.756.396-1.227-1.041-.756h1.287l.399-1.224.399 1.227h1.29l-1.041.756zm0-6.222l.396 1.227-1.041-.759-1.044.759.396-1.227-1.041-.759h1.287l.399-1.224.399 1.227h1.29l-1.041.756zm4.026 16.779l-1.044-.759-1.041.759.396-1.227-1.041-.759h1.29l.396-1.224.399 1.227h1.29l-1.044.756.399 1.227zm-.399-7.449l.396 1.227-1.041-.756-1.041.756.396-1.227-1.041-.756h1.29l.396-1.224.399 1.227h1.29l-1.044.753zm0-6.219l.396 1.227-1.041-.759-1.041.759.396-1.227-1.041-.759h1.29l.396-1.224.399 1.227h1.29l-1.044.756zm0-6.222l.396 1.227-1.041-.756-1.041.756.396-1.227-1.041-.756h1.29l.396-1.224.399 1.227h1.29l-1.044.753zm4.026 16.779l-1.041-.756-1.044.756.396-1.227-1.041-.756h1.29l.396-1.224.396 1.227h1.29l-1.038.753.396 1.227zM-3.524.028l.396 1.227-1.041-.759-1.044.756.396-1.227-1.041-.756h1.29l.396-1.224.396 1.227h1.29l-1.038.756zm0-6.222l.396 1.227-1.041-.759-1.044.759.396-1.227-1.041-.759h1.29l.396-1.224.399 1.227h1.29l-1.041.756zm0-6.222l.396 1.227-1.041-.756-1.044.756.396-1.227-1.041-.756h1.29l.396-1.224.396 1.227h1.29l-1.038.753zM.502 10.585l-1.044-.759-1.044.756.396-1.227-1.038-.756h1.29l.396-1.224.396 1.227h1.29l-1.041.756.399 1.227zM.103 3.136l.396 1.227-1.041-.756-1.041.756.396-1.227-1.041-.756h1.29l.396-1.224.396 1.227h1.29l-1.041.753zm0-6.219l.396 1.227-1.041-.759-1.041.759.396-1.227-1.041-.759h1.29l.396-1.224.396 1.227h1.29l-1.041.756zm0-6.222l.396 1.227-1.041-.756-1.041.756.396-1.227-1.041-.756h1.29l.396-1.224.396 1.227h1.29l-1.041.753zM4.132 7.474l-1.044-.756-1.044.756.396-1.227-1.041-.756h1.29l.396-1.224.396 1.227h1.29l-1.038.753.399 1.227zM3.733.028l.396 1.227L3.088.496l-1.044.756L2.44.025 1.399-.731h1.29l.396-1.224.396 1.227h1.29L3.733.028zm0-6.222l.396 1.227-1.041-.759-1.044.759.396-1.227-1.041-.759h1.29l.396-1.224.399 1.227h1.29l-1.041.756zm0-6.222l.396 1.227-1.041-.756-1.044.756.396-1.227-1.041-.756h1.29l.396-1.224.396 1.227h1.29l-1.038.753zm4.026 23.001l-1.041-.759-1.044.756.396-1.227-1.041-.756h1.29l.396-1.224.396 1.227h1.29l-1.038.756.396 1.227zm-.396-7.449l.396 1.227-1.041-.756-1.044.756.396-1.227-1.041-.756h1.29l.396-1.224.396 1.227h1.29l-1.038.753zm0-6.219l.396 1.227-1.041-.759-1.044.759.396-1.227-1.041-.759h1.29l.396-1.224.396 1.227h1.29l-1.038.756zm0-6.222l.396 1.227-1.041-.756-1.044.756.396-1.227-1.041-.756h1.29l.396-1.224.396 1.227h1.29l-1.038.753zm0-6.219l.396 1.224-1.041-.756-1.044.756.396-1.227-1.041-.756h1.29l.396-1.224.399 1.227h1.29l-1.041.756zm4.026 22.998l-1.044-.756-1.041.756.396-1.227-1.041-.756h1.29l.396-1.227.396 1.227h1.287l-1.044.756.405 1.227zM10.99.028l.396 1.227-1.044-.756-1.038.753L9.7.028 8.659-.731h1.29l.396-1.227.396 1.227h1.287L10.99.028zm0-6.222l.396 1.227-1.044-.756-1.038.756.396-1.227-1.041-.759h1.29l.396-1.227.396 1.227h1.287l-1.038.759zm0-6.222l.396 1.227-1.044-.756-1.038.756.396-1.227-1.041-.756h1.29l.396-1.227.396 1.227h1.287l-1.038.756zm4.026 23.001l-1.044-.756-1.044.756.396-1.227-1.044-.756h1.287l.396-1.227.396 1.227h1.29l-1.044.756.411 1.227zm-.396-7.449l.396 1.227-1.044-.756-1.044.756.396-1.227-1.038-.756h1.287l.396-1.227.396 1.227h1.29l-1.035.756zm0-6.219l.396 1.227-1.044-.756-1.044.756.396-1.227-1.044-.756h1.287l.396-1.227.396 1.227h1.29l-1.029.756zm0-6.222l.396 1.227-1.044-.756-1.044.756.396-1.227-1.044-.756h1.287l.396-1.227.396 1.227h1.29l-1.029.756zm0-6.219l.396 1.224-1.044-.756-1.041.756.396-1.227-1.044-.756h1.287l.396-1.227.396 1.227h1.29l-1.032.759zm4.026 22.998l-1.044-.756-1.044.756.396-1.227-1.044-.756h1.29l.396-1.227.396 1.227h1.29l-1.044.756.408 1.227zM18.247.028l.396 1.227-1.044-.756-1.044.756.396-1.227-1.044-.756h1.29l.396-1.227.396 1.227h1.29l-1.032.756zm0-6.222l.396 1.227-1.044-.756-1.044.756.396-1.227-1.044-.756h1.29l.396-1.227.396 1.227h1.29l-1.032.756zm0-6.222l.396 1.227-1.044-.756-1.044.756.396-1.227-1.044-.756h1.29l.396-1.227.396 1.227h1.29l-1.032.756zm4.029 23.001l-1.044-.756-1.044.756.396-1.227-1.044-.756h1.29l.396-1.224.396 1.227h1.29l-1.044.756.408 1.224zm-.399-7.449l.396 1.227-1.044-.756-1.044.756.396-1.227-1.038-.756h1.29l.396-1.224.396 1.227h1.29l-1.038.753zm0-6.219l.396 1.227-1.044-.756-1.044.756.396-1.227-1.044-.756h1.29l.396-1.224.396 1.227h1.29l-1.032.753zm0-6.222l.396 1.227-1.044-.756-1.044.756.396-1.227-1.044-.756h1.29l.396-1.224.396 1.227h1.29l-1.032.753z"/><path fill="#002664" d="M21.739-16.283l-.129-.063.021.063h.108zM-.809-16.682c-.315.126-.621.261-.93.399h.801l.129-.399z"/><path fill="#bb133e" d="M24.976 3.352h13.023a28.943 28.943 0 00-1.41-4.428H24.976v4.428zM24.976 12.214h13.713c.057-.732.111-1.464.111-2.214s-.054-1.482-.111-2.214H24.976v4.428z"/><path fill="#ccc" d="M10-18.5c15.6 0 28.5 12.9 28.5 28.5S25.6 38.5 10 38.5-18.5 25.6-18.5 10-5.6-18.5 10-18.5m0-1.5C-6.5-20-20-6.5-20 10s13.5 30 30 30 30-13.5 30-30-13.5-30-30-30z"/></svg>